<svg width="512" height="512" version="1.1" xmlns="http://www.w3.org/2000/svg" desc="Created with imagetracer.js version 1.2.6" ><path fill="rgb(0,0,0)" stroke="rgb(0,0,0)" stroke-width="1" opacity="0.9764705882352941" d="M 207.5 43 Q 225.2 41.3 231 51.5 L 236 65.5 L 236 69.5 L 238 74.5 L 238 78.5 L 240 83.5 L 240 87.5 L 242 92.5 L 242 96.5 L 244 101.5 L 244 105.5 L 246 110.5 L 246 114.5 L 248 119.5 L 248 123.5 L 250 128.5 L 250 132.5 L 252 137.5 L 252 141.5 L 254 146.5 L 254 150.5 L 256 155.5 L 256 159.5 L 258 164.5 L 258 168.5 L 260 173.5 L 260 177.5 L 262 182.5 L 262 186.5 L 264 191.5 L 264 195.5 L 266 200.5 L 266 204.5 L 268 209.5 L 268 213.5 L 270 218.5 L 270 222.5 L 272 227.5 L 272 231.5 L 274 236.5 L 274 240.5 L 276 245.5 L 276 249.5 L 278 254.5 L 278 258.5 L 280 263.5 L 280 267.5 L 282 272.5 L 282 276.5 L 284 281.5 L 284 285.5 L 302.5 367 L 304 365.5 L 342 249.5 Q 344.6 242.1 350.5 238 L 357.5 235 L 453.5 235 Q 460.9 237.1 465 242.5 Q 470.8 248.2 469 261.5 Q 466.9 268.9 461.5 273 L 453.5 277 L 378 277 L 319 455.5 L 310.5 466 Q 305.3 470.8 293.5 469 Q 285.2 466.9 281 460.5 L 276 446.5 L 276 442.5 L 274 437.5 L 274 433.5 L 272 428.5 L 272 424.5 L 270 419.5 L 270 415.5 L 268 410.5 L 268 406.5 L 266 401.5 L 266 397.5 L 264 392.5 L 264 388.5 L 262 383.5 L 262 379.5 L 260 374.5 L 260 370.5 L 258 365.5 L 258 361.5 L 256 356.5 L 256 352.5 L 254 347.5 L 254 343.5 L 252 338.5 L 252 334.5 L 250 329.5 L 250 325.5 L 248 320.5 L 248 316.5 L 246 311.5 L 246 307.5 L 244 302.5 L 244 298.5 L 242 293.5 L 242 289.5 L 240 284.5 L 240 280.5 L 238 275.5 L 238 271.5 L 236 266.5 L 236 262.5 L 234 257.5 L 234 253.5 L 232 248.5 L 232 244.5 L 230 239.5 L 230 235.5 L 228 230.5 L 228 226.5 L 209.5 145 L 208 146.5 L 170 262.5 Q 167.4 269.9 161.5 274 L 154.5 277 L 58.5 277 Q 51.1 274.9 47 269.5 Q 41.2 263.8 43 250.5 Q 45.1 243.1 50.5 239 L 58.5 235 L 134 235 L 193 56.5 L 201.5 46 L 207.5 43 Z " /><path fill="rgb(0,0,0)" stroke="rgb(0,0,0)" stroke-width="1" opacity="0" d="M 0 0 L 512 0 L 512 512 L 0 512 L 0 0 Z M 208 43 L 202 46 L 193 57 L 134 235 L 59 235 L 51 239 Q 45 243 43 251 Q 41 264 47 270 Q 51 275 59 277 L 155 277 L 162 274 Q 167 270 170 263 L 208 147 L 210 145 L 228 227 L 228 231 L 230 236 L 230 240 L 232 245 L 232 249 L 234 254 L 234 258 L 236 263 L 236 267 L 238 272 L 238 276 L 240 281 L 240 285 L 242 290 L 242 294 L 244 299 L 244 303 L 246 308 L 246 312 L 248 317 L 248 321 L 250 326 L 250 330 L 252 335 L 252 339 L 254 344 L 254 348 L 256 353 L 256 357 L 258 362 L 258 366 L 260 371 L 260 375 L 262 380 L 262 384 L 264 389 L 264 393 L 266 398 L 266 402 L 268 407 L 268 411 L 270 416 L 270 420 L 272 425 L 272 429 L 274 434 L 274 438 L 276 443 L 276 447 L 281 461 Q 285 467 294 469 Q 305 471 311 466 L 319 456 L 378 277 L 454 277 L 462 273 Q 467 269 469 262 Q 471 248 465 243 Q 461 237 454 235 L 358 235 L 351 238 Q 345 242 342 250 L 304 366 L 303 367 L 284 286 L 284 282 L 282 277 L 282 273 L 280 268 L 280 264 L 278 259 L 278 255 L 276 250 L 276 246 L 274 241 L 274 237 L 272 232 L 272 228 L 270 223 L 270 219 L 268 214 L 268 210 L 266 205 L 266 201 L 264 196 L 264 192 L 262 187 L 262 183 L 260 178 L 260 174 L 258 169 L 258 165 L 256 160 L 256 156 L 254 151 L 254 147 L 252 142 L 252 138 L 250 133 L 250 129 L 248 124 L 248 120 L 246 115 L 246 111 L 244 106 L 244 102 L 242 97 L 242 93 L 240 88 L 240 84 L 238 79 L 238 75 L 236 70 L 236 66 L 231 52 Q 225 41 208 43 Z " /></svg>