<svg width="512" height="512" version="1.1" xmlns="http://www.w3.org/2000/svg" desc="Created with imagetracer.js version 1.2.6" ><path fill="rgb(0,0,0)" stroke="rgb(0,0,0)" stroke-width="1" opacity="0.803921568627451" d="M 33.5 1 L 32.5 3 L 33.5 1 Z " /><path fill="rgb(0,0,0)" stroke="rgb(0,0,0)" stroke-width="1" opacity="0.803921568627451" d="M 398.5 1 L 399.5 3 L 398.5 1 Z " /><path fill="rgb(0,0,0)" stroke="rgb(0,0,0)" stroke-width="1" opacity="0.803921568627451" d="M 30.5 3 L 28.5 6 L 30.5 3 Z " /><path fill="rgb(0,0,0)" stroke="rgb(0,0,0)" stroke-width="1" opacity="0.803921568627451" d="M 401.5 3 L 403.5 6 L 401.5 3 Z " /><path fill="rgb(0,0,0)" stroke="rgb(0,0,0)" stroke-width="1" opacity="0.803921568627451" d="M 27.5 7 L 26.5 9 L 27.5 7 Z " /><path fill="rgb(0,0,0)" stroke="rgb(0,0,0)" stroke-width="1" opacity="0.803921568627451" d="M 404.5 7 L 405.5 9 L 404.5 7 Z " /><path fill="rgb(0,0,0)" stroke="rgb(0,0,0)" stroke-width="1" opacity="0.803921568627451" d="M 95.5 67 L 94.5 69 L 95.5 67 Z " /><path fill="rgb(0,0,0)" stroke="rgb(0,0,0)" stroke-width="1" opacity="0.803921568627451" d="M 336.5 67 L 337.5 69 L 336.5 67 Z " /><path fill="rgb(0,0,0)" stroke="rgb(0,0,0)" stroke-width="1" opacity="0.803921568627451" d="M 92.5 70 L 91.5 72 L 92.5 70 Z " /><path fill="rgb(0,0,0)" stroke="rgb(0,0,0)" stroke-width="1" opacity="0.803921568627451" d="M 339.5 70 L 340.5 72 L 339.5 70 Z " /><path fill="rgb(0,0,0)" stroke="rgb(0,0,0)" stroke-width="1" opacity="0.803921568627451" d="M 478.5 82 L 479.5 84 L 478.5 82 Z " /><path fill="rgb(0,0,0)" stroke="rgb(0,0,0)" stroke-width="1" opacity="0.803921568627451" d="M 481.5 84 L 483.5 87 L 481.5 84 Z " /><path fill="rgb(0,0,0)" stroke="rgb(0,0,0)" stroke-width="1" opacity="0.803921568627451" d="M 91.5 88 L 92.5 90 L 91.5 88 Z " /><path fill="rgb(0,0,0)" stroke="rgb(0,0,0)" stroke-width="1" opacity="0.803921568627451" d="M 340.5 88 L 339.5 90 L 340.5 88 Z " /><path fill="rgb(0,0,0)" stroke="rgb(0,0,0)" stroke-width="1" opacity="0.803921568627451" d="M 484.5 88 L 485.5 90 L 484.5 88 Z " /><path fill="rgb(0,0,0)" stroke="rgb(0,0,0)" stroke-width="1" opacity="0.803921568627451" d="M 94.5 91 L 95.5 93 L 94.5 91 Z " /><path fill="rgb(0,0,0)" stroke="rgb(0,0,0)" stroke-width="1" opacity="0.803921568627451" d="M 337.5 91 L 336.5 93 L 337.5 91 Z " /><path fill="rgb(0,0,0)" stroke="rgb(0,0,0)" stroke-width="1" opacity="0.803921568627451" d="M 95.5 131 L 94.5 133 L 95.5 131 Z " /><path fill="rgb(0,0,0)" stroke="rgb(0,0,0)" stroke-width="1" opacity="0.803921568627451" d="M 192.5 131 L 193.5 133 L 192.5 131 Z " /><path fill="rgb(0,0,0)" stroke="rgb(0,0,0)" stroke-width="1" opacity="0.803921568627451" d="M 92.5 134 L 91.5 136 L 92.5 134 Z " /><path fill="rgb(0,0,0)" stroke="rgb(0,0,0)" stroke-width="1" opacity="0.803921568627451" d="M 195.5 134 L 196.5 136 L 195.5 134 Z " /><path fill="rgb(0,0,0)" stroke="rgb(0,0,0)" stroke-width="1" opacity="0.803921568627451" d="M 239.5 139 L 238.5 141 L 239.5 139 Z " /><path fill="rgb(0,0,0)" stroke="rgb(0,0,0)" stroke-width="1" opacity="0.803921568627451" d="M 336.5 139 L 337.5 141 L 336.5 139 Z " /><path fill="rgb(0,0,0)" stroke="rgb(0,0,0)" stroke-width="1" opacity="0.803921568627451" d="M 236.5 142 L 235.5 144 L 236.5 142 Z " /><path fill="rgb(0,0,0)" stroke="rgb(0,0,0)" stroke-width="1" opacity="0.803921568627451" d="M 339.5 142 L 340.5 144 L 339.5 142 Z " /><path fill="rgb(0,0,0)" stroke="rgb(0,0,0)" stroke-width="1" opacity="0.803921568627451" d="M 235.5 160 L 236.5 162 L 235.5 160 Z " /><path fill="rgb(0,0,0)" stroke="rgb(0,0,0)" stroke-width="1" opacity="0.803921568627451" d="M 340.5 160 L 339.5 162 L 340.5 160 Z " /><path fill="rgb(0,0,0)" stroke="rgb(0,0,0)" stroke-width="1" opacity="0.803921568627451" d="M 238.5 163 L 239.5 165 L 238.5 163 Z " /><path fill="rgb(0,0,0)" stroke="rgb(0,0,0)" stroke-width="1" opacity="0.803921568627451" d="M 337.5 163 L 336.5 165 L 337.5 163 Z " /><path fill="rgb(0,0,0)" stroke="rgb(0,0,0)" stroke-width="1" opacity="0.803921568627451" d="M 239.5 203 L 238.5 205 L 239.5 203 Z " /><path fill="rgb(0,0,0)" stroke="rgb(0,0,0)" stroke-width="1" opacity="0.803921568627451" d="M 336.5 203 L 337.5 205 L 336.5 203 Z " /><path fill="rgb(0,0,0)" stroke="rgb(0,0,0)" stroke-width="1" opacity="0.803921568627451" d="M 236.5 206 L 235.5 208 L 236.5 206 Z " /><path fill="rgb(0,0,0)" stroke="rgb(0,0,0)" stroke-width="1" opacity="0.803921568627451" d="M 339.5 206 L 340.5 208 L 339.5 206 Z " /><path fill="rgb(0,0,0)" stroke="rgb(0,0,0)" stroke-width="1" opacity="0.803921568627451" d="M 235.5 224 L 236.5 226 L 235.5 224 Z " /><path fill="rgb(0,0,0)" stroke="rgb(0,0,0)" stroke-width="1" opacity="0.803921568627451" d="M 340.5 224 L 339.5 226 L 340.5 224 Z " /><path fill="rgb(0,0,0)" stroke="rgb(0,0,0)" stroke-width="1" opacity="0.803921568627451" d="M 238.5 227 L 239.5 229 L 238.5 227 Z " /><path fill="rgb(0,0,0)" stroke="rgb(0,0,0)" stroke-width="1" opacity="0.803921568627451" d="M 337.5 227 L 336.5 229 L 337.5 227 Z " /><path fill="rgb(0,0,0)" stroke="rgb(0,0,0)" stroke-width="1" opacity="0.803921568627451" d="M 239.5 275 L 238.5 277 L 239.5 275 Z " /><path fill="rgb(0,0,0)" stroke="rgb(0,0,0)" stroke-width="1" opacity="0.803921568627451" d="M 336.5 275 L 337.5 277 L 336.5 275 Z " /><path fill="rgb(0,0,0)" stroke="rgb(0,0,0)" stroke-width="1" opacity="0.803921568627451" d="M 236.5 278 L 235.5 280 L 236.5 278 Z " /><path fill="rgb(0,0,0)" stroke="rgb(0,0,0)" stroke-width="1" opacity="0.803921568627451" d="M 339.5 278 L 340.5 280 L 339.5 278 Z " /><path fill="rgb(0,0,0)" stroke="rgb(0,0,0)" stroke-width="1" opacity="0.803921568627451" d="M 91.5 296 L 92.5 298 L 91.5 296 Z " /><path fill="rgb(0,0,0)" stroke="rgb(0,0,0)" stroke-width="1" opacity="0.803921568627451" d="M 196.5 296 L 195.5 298 L 196.5 296 Z " /><path fill="rgb(0,0,0)" stroke="rgb(0,0,0)" stroke-width="1" opacity="0.803921568627451" d="M 235.5 296 L 236.5 298 L 235.5 296 Z " /><path fill="rgb(0,0,0)" stroke="rgb(0,0,0)" stroke-width="1" opacity="0.803921568627451" d="M 340.5 296 L 339.5 298 L 340.5 296 Z " /><path fill="rgb(0,0,0)" stroke="rgb(0,0,0)" stroke-width="1" opacity="0.803921568627451" d="M 94.5 299 L 95.5 301 L 94.5 299 Z " /><path fill="rgb(0,0,0)" stroke="rgb(0,0,0)" stroke-width="1" opacity="0.803921568627451" d="M 193.5 299 L 192.5 301 L 193.5 299 Z " /><path fill="rgb(0,0,0)" stroke="rgb(0,0,0)" stroke-width="1" opacity="0.803921568627451" d="M 238.5 299 L 239.5 301 L 238.5 299 Z " /><path fill="rgb(0,0,0)" stroke="rgb(0,0,0)" stroke-width="1" opacity="0.803921568627451" d="M 337.5 299 L 336.5 301 L 337.5 299 Z " /><path fill="rgb(0,0,0)" stroke="rgb(0,0,0)" stroke-width="1" opacity="0.803921568627451" d="M 95.5 339 L 94.5 341 L 95.5 339 Z " /><path fill="rgb(0,0,0)" stroke="rgb(0,0,0)" stroke-width="1" opacity="0.803921568627451" d="M 336.5 339 L 337.5 341 L 336.5 339 Z " /><path fill="rgb(0,0,0)" stroke="rgb(0,0,0)" stroke-width="1" opacity="0.803921568627451" d="M 92.5 342 L 91.5 344 L 92.5 342 Z " /><path fill="rgb(0,0,0)" stroke="rgb(0,0,0)" stroke-width="1" opacity="0.803921568627451" d="M 339.5 342 L 340.5 344 L 339.5 342 Z " /><path fill="rgb(0,0,0)" stroke="rgb(0,0,0)" stroke-width="1" opacity="0.803921568627451" d="M 91.5 360 L 92.5 362 L 91.5 360 Z " /><path fill="rgb(0,0,0)" stroke="rgb(0,0,0)" stroke-width="1" opacity="0.803921568627451" d="M 340.5 360 L 339.5 362 L 340.5 360 Z " /><path fill="rgb(0,0,0)" stroke="rgb(0,0,0)" stroke-width="1" opacity="0.803921568627451" d="M 94.5 363 L 95.5 365 L 94.5 363 Z " /><path fill="rgb(0,0,0)" stroke="rgb(0,0,0)" stroke-width="1" opacity="0.803921568627451" d="M 337.5 363 L 336.5 365 L 337.5 363 Z " /><path fill="rgb(0,0,0)" stroke="rgb(0,0,0)" stroke-width="1" opacity="0.803921568627451" d="M 26.5 422 L 27.5 424 L 26.5 422 Z " /><path fill="rgb(0,0,0)" stroke="rgb(0,0,0)" stroke-width="1" opacity="0.803921568627451" d="M 405.5 422 L 404.5 424 L 405.5 422 Z " /><path fill="rgb(0,0,0)" stroke="rgb(0,0,0)" stroke-width="1" opacity="0.803921568627451" d="M 436.5 422 L 437 424.5 L 436 424.5 L 436.5 422 Z " /><path fill="rgb(0,0,0)" stroke="rgb(0,0,0)" stroke-width="1" opacity="0.803921568627451" d="M 28.5 425 L 30.5 428 L 28.5 425 Z " /><path fill="rgb(0,0,0)" stroke="rgb(0,0,0)" stroke-width="1" opacity="0.803921568627451" d="M 403.5 425 L 401.5 428 L 403.5 425 Z " /><path fill="rgb(0,0,0)" stroke="rgb(0,0,0)" stroke-width="1" opacity="0.803921568627451" d="M 32.5 428 L 33.5 430 L 32.5 428 Z " /><path fill="rgb(0,0,0)" stroke="rgb(0,0,0)" stroke-width="1" opacity="0.803921568627451" d="M 399.5 428 L 398.5 430 L 399.5 428 Z " /><path fill="rgb(0,0,0)" stroke="rgb(0,0,0)" stroke-width="1" opacity="0.803921568627451" d="M 429.5 441 L 427.5 444 L 429.5 441 Z " /><path fill="rgb(0,0,0)" stroke="rgb(0,0,0)" stroke-width="1" opacity="0.803921568627451" d="M 425.5 446 L 422.5 450 L 425.5 446 Z " /><path fill="rgb(0,0,0)" stroke="rgb(0,0,0)" stroke-width="1" opacity="0.803921568627451" d="M 419.5 451 L 417.5 454 L 419.5 451 Z " /><path fill="rgb(0,0,0)" stroke="rgb(0,0,0)" stroke-width="1" opacity="0.803921568627451" d="M 398.5 460 L 401 460.5 L 398.5 461 L 398.5 460 Z " /><path fill="rgb(0,0,0)" stroke="rgb(0,0,0)" stroke-width="1" opacity="0.803921568627451" d="M 106.5 503 L 107.5 505 L 106.5 503 Z " /><path fill="rgb(0,0,0)" stroke="rgb(0,0,0)" stroke-width="1" opacity="0.803921568627451" d="M 485.5 503 L 484.5 505 L 485.5 503 Z " /><path fill="rgb(0,0,0)" stroke="rgb(0,0,0)" stroke-width="1" opacity="0.803921568627451" d="M 108.5 506 L 110.5 509 L 108.5 506 Z " /><path fill="rgb(0,0,0)" stroke="rgb(0,0,0)" stroke-width="1" opacity="0.803921568627451" d="M 483.5 506 L 481.5 509 L 483.5 506 Z " /><path fill="rgb(0,0,0)" stroke="rgb(0,0,0)" stroke-width="1" opacity="0.803921568627451" d="M 112.5 509 L 113.5 511 L 112.5 509 Z " /><path fill="rgb(0,0,0)" stroke="rgb(0,0,0)" stroke-width="1" opacity="0.803921568627451" d="M 479.5 509 L 478.5 511 L 479.5 509 Z " /><path fill="rgb(0,0,0)" stroke="rgb(0,0,0)" stroke-width="1" opacity="0" d="M 0 0 L 36 0.5 L 28 5.5 L 25 11.5 L 25 419.5 L 30.5 428 L 36.5 431 L 395.5 431 L 404 425.5 L 407 419.5 L 407 11.5 L 401.5 3 L 396 0.5 L 512 0 L 512 511.5 L 511.5 512 L 476.5 512 L 476.5 511 L 478.5 511 L 484 506.5 L 487 500.5 L 487 92.5 L 481.5 84 L 475.5 81 L 437 81 L 437 421.5 Q 433.5 441 420.5 451 L 406.5 459 L 397.5 461 L 105 461 L 105 500.5 L 110.5 509 L 116 511.5 L 0 512 L 0 0 Z " /><path fill="rgb(0,0,0)" stroke="rgb(0,0,0)" stroke-width="1" opacity="0" d="M 101.5 65 L 330.5 65 L 339 69 L 343 77.5 L 343 82.5 L 339 91 L 330.5 95 L 101.5 95 L 93 91 L 89 82.5 L 89 77.5 L 93 69 L 101.5 65 Z " /><path fill="rgb(0,0,0)" stroke="rgb(0,0,0)" stroke-width="1" opacity="0" d="M 101.5 129 L 186.5 129 L 195 133 L 199 141.5 L 199 290.5 L 195 299 L 186.5 303 L 101.5 303 L 93 299 L 89 290.5 L 89 141.5 L 93 133 L 101.5 129 Z M 119 159 L 119 273 L 169 273 L 169 159 L 119 159 Z " /><path fill="rgb(0,0,0)" stroke="rgb(0,0,0)" stroke-width="1" opacity="0" d="M 245.5 137 L 330.5 137 L 339 141 L 343 149.5 L 343 154.5 L 339 163 L 330.5 167 L 245.5 167 L 237 163 L 233 154.5 L 233 149.5 L 237 141 L 245.5 137 Z " /><path fill="rgb(0,0,0)" stroke="rgb(0,0,0)" stroke-width="1" opacity="0" d="M 245.5 201 L 330.5 201 L 339 205 L 343 213.5 L 343 218.5 L 339 227 L 330.5 231 L 245.5 231 L 237 227 L 233 218.5 L 233 213.5 L 237 205 L 245.5 201 Z " /><path fill="rgb(0,0,0)" stroke="rgb(0,0,0)" stroke-width="1" opacity="0" d="M 245.5 273 L 330.5 273 L 339 277 L 343 285.5 L 343 290.5 L 339 299 L 330.5 303 L 245.5 303 L 237 299 L 233 290.5 L 233 285.5 L 237 277 L 245.5 273 Z " /><path fill="rgb(0,0,0)" stroke="rgb(0,0,0)" stroke-width="1" opacity="0" d="M 101.5 337 L 330.5 337 L 339 341 L 343 349.5 L 343 354.5 L 339 363 L 330.5 367 L 101.5 367 L 93 363 L 89 354.5 L 89 349.5 L 93 341 L 101.5 337 Z " /><path fill="rgb(0,0,0)" stroke="rgb(0,0,0)" stroke-width="1" opacity="1" d="M 38.5 0 L 393.5 0 Q 400.9 1.1 404 6.5 L 407 13.5 L 407 417.5 Q 405.9 424.9 400.5 428 L 393.5 431 L 38.5 431 Q 31.1 429.9 28 424.5 L 25 417.5 L 25 13.5 Q 26.1 6.1 31.5 3 L 38.5 0 Z M 100 65 L 96 67 L 89 76 Q 88 85 91 89 L 100 95 L 333 95 L 337 93 L 343 85 Q 345 75 341 72 L 333 65 L 100 65 Z M 100 129 L 96 131 L 89 140 L 89 293 L 91 297 L 100 303 L 189 303 L 193 301 L 199 293 L 199 140 L 197 136 L 189 129 L 100 129 Z M 244 137 L 240 139 L 233 148 Q 232 156 235 161 L 244 167 L 333 167 L 337 165 L 343 157 Q 345 148 341 144 L 333 137 L 244 137 Z M 244 201 L 240 203 L 233 212 Q 232 221 235 225 L 244 231 L 333 231 L 337 229 L 343 221 Q 345 211 341 208 L 333 201 L 244 201 Z M 244 273 L 240 275 L 233 284 Q 232 293 235 297 L 244 303 L 333 303 L 337 301 L 343 293 Q 345 284 341 280 L 333 273 L 244 273 Z M 100 337 L 96 339 L 89 348 Q 88 357 91 361 L 100 367 L 333 367 L 337 365 L 343 357 Q 345 348 341 344 L 333 337 L 100 337 Z " /><path fill="rgb(0,0,0)" stroke="rgb(0,0,0)" stroke-width="1" opacity="1" d="M 437 81 L 473.5 81 Q 480.9 82.1 484 87.5 L 487 94.5 L 487 498.5 Q 485.9 505.9 480.5 509 L 473.5 512 L 118.5 512 Q 111.1 510.9 108 505.5 L 105 498.5 L 105 461 L 400.5 461 Q 416.8 457.3 426 446.5 Q 434 438 437 424.5 L 437 81 Z " /><path fill="rgb(0,0,0)" stroke="rgb(0,0,0)" stroke-width="1" opacity="1" d="M 119 159 L 169 159 L 169 273 L 119 273 L 119 159 Z " /></svg>