<svg width="512" height="512" version="1.1" xmlns="http://www.w3.org/2000/svg" desc="Created with imagetracer.js version 1.2.6" ><path fill="rgb(0,0,0)" stroke="rgb(0,0,0)" stroke-width="1" opacity="0.8196078431372549" d="M 249.5 0 L 254 0.5 L 249.5 1 L 249.5 0 Z " /><path fill="rgb(0,0,0)" stroke="rgb(0,0,0)" stroke-width="1" opacity="0.8196078431372549" d="M 258.5 0 L 263 0.5 L 258.5 1 L 258.5 0 Z " /><path fill="rgb(0,0,0)" stroke="rgb(0,0,0)" stroke-width="1" opacity="0.8196078431372549" d="M 230.5 7 L 229.5 9 L 230.5 7 Z " /><path fill="rgb(0,0,0)" stroke="rgb(0,0,0)" stroke-width="1" opacity="0.8196078431372549" d="M 281.5 7 L 282.5 9 L 281.5 7 Z " /><path fill="rgb(0,0,0)" stroke="rgb(0,0,0)" stroke-width="1" opacity="0.8196078431372549" d="M 226.5 10 L 10.5 227 L 226.5 10 Z " /><path fill="rgb(0,0,0)" stroke="rgb(0,0,0)" stroke-width="1" opacity="0.8196078431372549" d="M 285.5 10 L 501.5 227 L 285.5 10 Z " /><path fill="rgb(0,0,0)" stroke="rgb(0,0,0)" stroke-width="1" opacity="0.8196078431372549" d="M 8.5 229 L 7.5 231 L 8.5 229 Z " /><path fill="rgb(0,0,0)" stroke="rgb(0,0,0)" stroke-width="1" opacity="0.8196078431372549" d="M 503.5 229 L 504.5 231 L 503.5 229 Z " /><path fill="rgb(0,0,0)" stroke="rgb(0,0,0)" stroke-width="1" opacity="0.8196078431372549" d="M 0.5 249 L 1 253.5 L 0 253.5 L 0.5 249 Z " /><path fill="rgb(0,0,0)" stroke="rgb(0,0,0)" stroke-width="1" opacity="0.8196078431372549" d="M 511.5 249 L 512 254.5 L 511 254.5 L 511.5 249 Z " /><path fill="rgb(0,0,0)" stroke="rgb(0,0,0)" stroke-width="1" opacity="0.8196078431372549" d="M 511.5 257 L 512 262.5 L 511 262.5 L 511.5 257 Z " /><path fill="rgb(0,0,0)" stroke="rgb(0,0,0)" stroke-width="1" opacity="0.8196078431372549" d="M 0.5 258 L 1 262.5 L 0 262.5 L 0.5 258 Z " /><path fill="rgb(0,0,0)" stroke="rgb(0,0,0)" stroke-width="1" opacity="0.8196078431372549" d="M 7.5 281 L 8.5 283 L 7.5 281 Z " /><path fill="rgb(0,0,0)" stroke="rgb(0,0,0)" stroke-width="1" opacity="0.8196078431372549" d="M 504.5 281 L 503.5 283 L 504.5 281 Z " /><path fill="rgb(0,0,0)" stroke="rgb(0,0,0)" stroke-width="1" opacity="0.8196078431372549" d="M 10.5 285 L 17.5 293 L 10.5 285 Z " /><path fill="rgb(0,0,0)" stroke="rgb(0,0,0)" stroke-width="1" opacity="0.8196078431372549" d="M 501.5 285 L 494.5 293 L 501.5 285 Z " /><path fill="rgb(0,0,0)" stroke="rgb(0,0,0)" stroke-width="1" opacity="0.8196078431372549" d="M 20.5 294 L 21.5 296 L 20.5 294 Z " /><path fill="rgb(0,0,0)" stroke="rgb(0,0,0)" stroke-width="1" opacity="0.8196078431372549" d="M 491.5 294 L 490.5 296 L 491.5 294 Z " /><path fill="rgb(0,0,0)" stroke="rgb(0,0,0)" stroke-width="1" opacity="0.8196078431372549" d="M 39.5 302 L 43 302.5 L 39.5 303 L 39.5 302 Z " /><path fill="rgb(0,0,0)" stroke="rgb(0,0,0)" stroke-width="1" opacity="0.8196078431372549" d="M 469.5 302 L 473 302.5 L 469.5 303 L 469.5 302 Z " /><path fill="rgb(0,0,0)" stroke="rgb(0,0,0)" stroke-width="1" opacity="0.8196078431372549" d="M 227.5 351 L 230 351.5 L 227.5 352 L 227.5 351 Z " /><path fill="rgb(0,0,0)" stroke="rgb(0,0,0)" stroke-width="1" opacity="0.8196078431372549" d="M 282.5 351 L 285 351.5 L 282.5 352 L 282.5 351 Z " /><path fill="rgb(0,0,0)" stroke="rgb(0,0,0)" stroke-width="1" opacity="0.8196078431372549" d="M 217.5 355 L 215.5 358 L 217.5 355 Z " /><path fill="rgb(0,0,0)" stroke="rgb(0,0,0)" stroke-width="1" opacity="0.8196078431372549" d="M 294.5 355 L 296.5 358 L 294.5 355 Z " /><path fill="rgb(0,0,0)" stroke="rgb(0,0,0)" stroke-width="1" opacity="0.8196078431372549" d="M 212.5 360 L 210.5 363 L 212.5 360 Z " /><path fill="rgb(0,0,0)" stroke="rgb(0,0,0)" stroke-width="1" opacity="0.8196078431372549" d="M 299.5 360 L 300.5 362 L 299.5 360 Z " /><path fill="rgb(0,0,0)" stroke="rgb(0,0,0)" stroke-width="1" opacity="0.8196078431372549" d="M 301.5 363 L 302.5 365 L 301.5 363 Z " /><path fill="rgb(0,0,0)" stroke="rgb(0,0,0)" stroke-width="1" opacity="0.8196078431372549" d="M 206.5 373 L 207 499.5 L 206 499.5 L 206.5 373 Z " /><path fill="rgb(0,0,0)" stroke="rgb(0,0,0)" stroke-width="1" opacity="0.8196078431372549" d="M 305.5 374 L 306 499.5 L 305 499.5 L 305.5 374 Z " /><path fill="rgb(0,0,0)" stroke="rgb(0,0,0)" stroke-width="1" opacity="0.8196078431372549" d="M 456.5 461 L 457 464.5 L 456 464.5 L 456.5 461 Z " /><path fill="rgb(0,0,0)" stroke="rgb(0,0,0)" stroke-width="1" opacity="0.8196078431372549" d="M 55.5 462 L 56 465.5 L 55 465.5 L 55.5 462 Z " /><path fill="rgb(0,0,0)" stroke="rgb(0,0,0)" stroke-width="1" opacity="0.8196078431372549" d="M 63.5 486 L 64.5 488 L 63.5 486 Z " /><path fill="rgb(0,0,0)" stroke="rgb(0,0,0)" stroke-width="1" opacity="0.8196078431372549" d="M 66.5 490 L 68.5 493 L 66.5 490 Z " /><path fill="rgb(0,0,0)" stroke="rgb(0,0,0)" stroke-width="1" opacity="0.8196078431372549" d="M 445.5 490 L 443.5 493 L 445.5 490 Z " /><path fill="rgb(0,0,0)" stroke="rgb(0,0,0)" stroke-width="1" opacity="0.8196078431372549" d="M 438.5 497 L 435.5 501 L 438.5 497 Z " /><path fill="rgb(0,0,0)" stroke="rgb(0,0,0)" stroke-width="1" opacity="0.8196078431372549" d="M 74.5 498 L 76.5 501 L 74.5 498 Z " /><path fill="rgb(0,0,0)" stroke="rgb(0,0,0)" stroke-width="1" opacity="0.8196078431372549" d="M 81.5 503 L 82.5 505 L 81.5 503 Z " /><path fill="rgb(0,0,0)" stroke="rgb(0,0,0)" stroke-width="1" opacity="0.8196078431372549" d="M 430.5 503 L 429.5 505 L 430.5 503 Z " /><path fill="rgb(0,0,0)" stroke="rgb(0,0,0)" stroke-width="1" opacity="0.8196078431372549" d="M 102.5 511 L 108 511.5 L 102.5 512 L 102.5 511 Z " /><path fill="rgb(0,0,0)" stroke="rgb(0,0,0)" stroke-width="1" opacity="0.8196078431372549" d="M 193.5 511 L 196 511.5 L 193.5 512 L 193.5 511 Z " /><path fill="rgb(0,0,0)" stroke="rgb(0,0,0)" stroke-width="1" opacity="0.8196078431372549" d="M 316.5 511 L 319 511.5 L 316.5 512 L 316.5 511 Z " /><path fill="rgb(0,0,0)" stroke="rgb(0,0,0)" stroke-width="1" opacity="0.8196078431372549" d="M 404.5 511 L 410 511.5 L 404.5 512 L 404.5 511 Z " /><path fill="rgb(0,0,0)" stroke="rgb(0,0,0)" stroke-width="1" opacity="0" d="M 0 0 L 249 0.5 Q 234.9 2.4 226.5 10 L 10 226.5 Q 2.4 234.9 0.5 249 L 0 0 Z " /><path fill="rgb(0,0,0)" stroke="rgb(0,0,0)" stroke-width="1" opacity="0" d="M 263.5 0 L 512 0 L 512 248.5 L 511 248.5 Q 509.6 234.4 502 226.5 L 285.5 10 L 273.5 3 L 263.5 1 L 263.5 0 Z " /><path fill="rgb(0,0,0)" stroke="rgb(0,0,0)" stroke-width="1" opacity="0" d="M 0.5 263 Q 3.9 283.1 17.5 293 L 31.5 301 L 39.5 303 L 55 303 L 55 465.5 Q 59.9 489.1 76.5 501 Q 86.3 509.2 102 511.5 L 0 512 L 0.5 263 Z " /><path fill="rgb(0,0,0)" stroke="rgb(0,0,0)" stroke-width="1" opacity="0" d="M 511.5 263 L 512 512 L 410 511.5 Q 434.2 507.2 446 490.5 L 454 476.5 L 457 464.5 L 457 303 L 472.5 303 L 480.5 301 Q 493.9 295.9 502 285.5 Q 509.6 277.1 511.5 263 Z " /><path fill="rgb(0,0,0)" stroke="rgb(0,0,0)" stroke-width="1" opacity="0" d="M 230.5 351 L 281.5 351 L 289.5 353 L 299 359.5 L 305 371.5 L 305 499.5 L 309 508 L 316 511.5 L 196.5 512 L 196.5 511 Q 202.6 509.6 205 504.5 L 207 499.5 L 207 371.5 Q 208.9 362.9 214.5 358 L 222.5 353 L 230.5 351 Z " /><path fill="rgb(0,0,0)" stroke="rgb(0,0,0)" stroke-width="1" opacity="1" d="M 254.5 0 L 269.5 2 L 283.5 9 L 503 228.5 L 510 242.5 L 512 256.5 L 511 257.5 L 510 269.5 L 505 280.5 L 492.5 294 Q 479.9 304.1 457 303 L 457 460.5 L 453 477.5 Q 448.2 489.2 439.5 497 Q 429 507 412.5 511 L 404.5 511 L 403.5 512 L 319.5 512 Q 311.7 510.8 308 505.5 L 306 501.5 L 306 374.5 L 303 364.5 L 294.5 355 L 284.5 351 L 227.5 351 Q 215.6 353.6 210 362.5 L 206 373.5 L 206 501.5 L 200.5 509 L 192.5 512 L 108.5 512 L 107.5 511 L 99.5 511 L 89.5 508 Q 77.2 502.8 69 493.5 L 59 477.5 L 55 461.5 L 55 303 L 43.5 303 L 30.5 300 Q 17 294.5 9 283.5 L 2 269.5 L 0 254.5 L 3 239.5 L 9 228.5 L 228.5 9 L 239.5 3 L 254.5 0 Z " /></svg>