<svg width="512" height="512" version="1.1" xmlns="http://www.w3.org/2000/svg" desc="Created with imagetracer.js version 1.2.6" ><path fill="rgb(0,0,0)" stroke="rgb(0,0,0)" stroke-width="1" opacity="0" d="M 0 0 L 240 0.5 L 220.5 2 L 190.5 8 Q 166.9 14.4 146.5 24 Q 104.1 44.6 73 76.5 Q 43.4 106.4 24 146.5 Q 14.4 166.9 8 190.5 L 3 213.5 L 0.5 239 L 0 0 Z " /><path fill="rgb(0,0,0)" stroke="rgb(0,0,0)" stroke-width="1" opacity="0" d="M 272.5 0 L 512 0 L 512 238.5 L 511 238.5 L 511 228.5 L 510 227.5 L 510 220.5 L 506 198.5 Q 499.2 170.3 488 146.5 Q 467.1 103.4 434.5 72 Q 404.9 43.1 365.5 24 Q 345.1 14.4 321.5 8 L 298.5 3 L 284.5 2 L 283.5 1 L 272.5 1 L 272.5 0 Z " /><path fill="rgb(0,0,0)" stroke="rgb(0,0,0)" stroke-width="1" opacity="0" d="M 245.5 77 L 266.5 77 L 286.5 82 Q 306.8 90.2 320 105.5 Q 331.1 117.9 337 135.5 L 340 148.5 L 341 162.5 L 340 163.5 L 339 179.5 L 335 192.5 Q 326.1 213.6 309.5 227 Q 298.3 236.8 282.5 242 L 269.5 245 L 250.5 246 L 229.5 242 L 212.5 234 Q 199.4 226.1 190 214.5 L 177 192.5 L 173 179.5 L 172 162.5 L 171 160.5 L 172 159.5 L 173 143.5 L 178 127.5 Q 186.3 109.3 200.5 97 L 216.5 86 L 231.5 80 L 245.5 77 Z " /><path fill="rgb(0,0,0)" stroke="rgb(0,0,0)" stroke-width="1" opacity="0" d="M 0.5 273 L 3 298.5 L 8 321.5 Q 14.4 345.1 24 365.5 Q 44.9 408.6 77.5 440 Q 110.4 472.1 155.5 492 L 198.5 506 L 220.5 510 L 240 511.5 L 0 512 L 0.5 273 Z " /><path fill="rgb(0,0,0)" stroke="rgb(0,0,0)" stroke-width="1" opacity="0" d="M 511.5 273 L 512 512 L 272 511.5 L 298.5 509 L 321.5 504 Q 345.1 497.6 365.5 488 Q 408.6 467.1 440 434.5 Q 472.1 401.6 492 356.5 L 506 313.5 L 510 291.5 L 511.5 273 Z " /><path fill="rgb(0,0,0)" stroke="rgb(0,0,0)" stroke-width="1" opacity="0" d="M 202.5 287 L 309.5 287 L 310.5 288 L 324.5 289 Q 354.9 297.1 372 318.5 Q 390.1 338.4 391 375.5 L 388 387.5 L 378.5 400 Q 353.9 421.4 320.5 434 L 285.5 443 L 266.5 444 L 265.5 445 L 246.5 445 L 245.5 444 L 234.5 444 L 233.5 443 L 220.5 442 L 186.5 432 Q 153.5 419 130 396.5 Q 119.5 386.5 121 364.5 L 125 345.5 L 133 328.5 Q 140.9 315.4 152.5 306 L 174.5 293 L 187.5 289 L 201.5 288 L 202.5 287 Z " /><path fill="rgb(0,0,0)" stroke="rgb(0,0,0)" stroke-width="1" opacity="0.8" d="M 240.5 0 L 252 0.5 L 240.5 1 L 240.5 0 Z " /><path fill="rgb(0,0,0)" stroke="rgb(0,0,0)" stroke-width="1" opacity="0.8" d="M 260.5 0 L 272 0.5 L 260.5 1 L 260.5 0 Z " /><path fill="rgb(0,0,0)" stroke="rgb(0,0,0)" stroke-width="1" opacity="0.8" d="M 228.5 1 L 233 1.5 L 228.5 2 L 228.5 1 Z " /><path fill="rgb(0,0,0)" stroke="rgb(0,0,0)" stroke-width="1" opacity="0.8" d="M 279.5 1 L 284 1.5 L 279.5 2 L 279.5 1 Z " /><path fill="rgb(0,0,0)" stroke="rgb(0,0,0)" stroke-width="1" opacity="0.8" d="M 220.5 2 L 224 2.5 L 220.5 3 L 220.5 2 Z " /><path fill="rgb(0,0,0)" stroke="rgb(0,0,0)" stroke-width="1" opacity="0.8" d="M 288.5 2 L 292 2.5 L 288.5 3 L 288.5 2 Z " /><path fill="rgb(0,0,0)" stroke="rgb(0,0,0)" stroke-width="1" opacity="0.8" d="M 296.5 3 L 299 3.5 L 296.5 4 L 296.5 3 Z " /><path fill="rgb(0,0,0)" stroke="rgb(0,0,0)" stroke-width="1" opacity="0.8" d="M 208.5 4 L 211 4.5 L 208.5 5 L 208.5 4 Z " /><path fill="rgb(0,0,0)" stroke="rgb(0,0,0)" stroke-width="1" opacity="0.8" d="M 301.5 4 L 304 4.5 L 301.5 5 L 301.5 4 Z " /><path fill="rgb(0,0,0)" stroke="rgb(0,0,0)" stroke-width="1" opacity="0.8" d="M 198.5 6 L 201 6.5 L 198.5 7 L 198.5 6 Z " /><path fill="rgb(0,0,0)" stroke="rgb(0,0,0)" stroke-width="1" opacity="0.8" d="M 311.5 6 L 314 6.5 L 311.5 7 L 311.5 6 Z " /><path fill="rgb(0,0,0)" stroke="rgb(0,0,0)" stroke-width="1" opacity="0.8" d="M 140.5 27 L 139.5 29 L 137.5 30 L 138.5 28 L 140.5 27 Z " /><path fill="rgb(0,0,0)" stroke="rgb(0,0,0)" stroke-width="1" opacity="0.8" d="M 371.5 27 L 375 29.5 L 373.5 29 L 371.5 27 Z " /><path fill="rgb(0,0,0)" stroke="rgb(0,0,0)" stroke-width="1" opacity="0.8" d="M 122.5 37 L 121.5 39 L 122.5 37 Z " /><path fill="rgb(0,0,0)" stroke="rgb(0,0,0)" stroke-width="1" opacity="0.8" d="M 389.5 37 L 390.5 39 L 389.5 37 Z " /><path fill="rgb(0,0,0)" stroke="rgb(0,0,0)" stroke-width="1" opacity="0.8" d="M 119.5 39 L 118.5 41 L 119.5 39 Z " /><path fill="rgb(0,0,0)" stroke="rgb(0,0,0)" stroke-width="1" opacity="0.8" d="M 392.5 39 L 393.5 41 L 392.5 39 Z " /><path fill="rgb(0,0,0)" stroke="rgb(0,0,0)" stroke-width="1" opacity="0.8" d="M 110.5 45 L 109.5 47 L 110.5 45 Z " /><path fill="rgb(0,0,0)" stroke="rgb(0,0,0)" stroke-width="1" opacity="0.8" d="M 401.5 45 L 402.5 47 L 401.5 45 Z " /><path fill="rgb(0,0,0)" stroke="rgb(0,0,0)" stroke-width="1" opacity="0.8" d="M 107.5 47 L 106.5 49 L 107.5 47 Z " /><path fill="rgb(0,0,0)" stroke="rgb(0,0,0)" stroke-width="1" opacity="0.8" d="M 404.5 47 L 405.5 49 L 404.5 47 Z " /><path fill="rgb(0,0,0)" stroke="rgb(0,0,0)" stroke-width="1" opacity="0.8" d="M 103.5 50 L 102.5 52 L 103.5 50 Z " /><path fill="rgb(0,0,0)" stroke="rgb(0,0,0)" stroke-width="1" opacity="0.8" d="M 408.5 50 L 409.5 52 L 408.5 50 Z " /><path fill="rgb(0,0,0)" stroke="rgb(0,0,0)" stroke-width="1" opacity="0.8" d="M 99.5 53 L 97.5 56 L 99.5 53 Z " /><path fill="rgb(0,0,0)" stroke="rgb(0,0,0)" stroke-width="1" opacity="0.8" d="M 412.5 53 L 414.5 56 L 412.5 53 Z " /><path fill="rgb(0,0,0)" stroke="rgb(0,0,0)" stroke-width="1" opacity="0.8" d="M 94.5 57 L 92.5 60 L 94.5 57 Z " /><path fill="rgb(0,0,0)" stroke="rgb(0,0,0)" stroke-width="1" opacity="0.8" d="M 417.5 57 L 419.5 60 L 417.5 57 Z " /><path fill="rgb(0,0,0)" stroke="rgb(0,0,0)" stroke-width="1" opacity="0.8" d="M 88.5 62 L 85.5 66 L 88.5 62 Z " /><path fill="rgb(0,0,0)" stroke="rgb(0,0,0)" stroke-width="1" opacity="0.8" d="M 423.5 62 L 426.5 66 L 423.5 62 Z " /><path fill="rgb(0,0,0)" stroke="rgb(0,0,0)" stroke-width="1" opacity="0.8" d="M 434.5 72 L 439.5 78 L 434.5 72 Z " /><path fill="rgb(0,0,0)" stroke="rgb(0,0,0)" stroke-width="1" opacity="0.8" d="M 76.5 73 L 73.5 77 L 76.5 73 Z " /><path fill="rgb(0,0,0)" stroke="rgb(0,0,0)" stroke-width="1" opacity="0.8" d="M 249.5 76 L 263 76.5 L 249.5 77 L 249.5 76 Z " /><path fill="rgb(0,0,0)" stroke="rgb(0,0,0)" stroke-width="1" opacity="0.8" d="M 241.5 77 L 245 77.5 L 241.5 78 L 241.5 77 Z " /><path fill="rgb(0,0,0)" stroke="rgb(0,0,0)" stroke-width="1" opacity="0.8" d="M 267.5 77 L 271 77.5 L 267.5 78 L 267.5 77 Z " /><path fill="rgb(0,0,0)" stroke="rgb(0,0,0)" stroke-width="1" opacity="0.8" d="M 219.5 84 L 221 84.5 L 217.5 86 L 217.5 85 L 219.5 84 Z " /><path fill="rgb(0,0,0)" stroke="rgb(0,0,0)" stroke-width="1" opacity="0.8" d="M 65.5 85 L 62.5 89 L 65.5 85 Z " /><path fill="rgb(0,0,0)" stroke="rgb(0,0,0)" stroke-width="1" opacity="0.8" d="M 446.5 85 L 449.5 89 L 446.5 85 Z " /><path fill="rgb(0,0,0)" stroke="rgb(0,0,0)" stroke-width="1" opacity="0.8" d="M 215.5 86 L 214.5 88 L 215.5 86 Z " /><path fill="rgb(0,0,0)" stroke="rgb(0,0,0)" stroke-width="1" opacity="0.8" d="M 296.5 86 L 297.5 88 L 296.5 86 Z " /><path fill="rgb(0,0,0)" stroke="rgb(0,0,0)" stroke-width="1" opacity="0.8" d="M 210.5 89 L 209.5 91 L 210.5 89 Z " /><path fill="rgb(0,0,0)" stroke="rgb(0,0,0)" stroke-width="1" opacity="0.8" d="M 301.5 89 L 302.5 91 L 301.5 89 Z " /><path fill="rgb(0,0,0)" stroke="rgb(0,0,0)" stroke-width="1" opacity="0.8" d="M 207.5 91 L 206.5 93 L 207.5 91 Z " /><path fill="rgb(0,0,0)" stroke="rgb(0,0,0)" stroke-width="1" opacity="0.8" d="M 304.5 91 L 305.5 93 L 304.5 91 Z " /><path fill="rgb(0,0,0)" stroke="rgb(0,0,0)" stroke-width="1" opacity="0.8" d="M 59.5 92 L 57.5 95 L 59.5 92 Z " /><path fill="rgb(0,0,0)" stroke="rgb(0,0,0)" stroke-width="1" opacity="0.8" d="M 452.5 92 L 454.5 95 L 452.5 92 Z " /><path fill="rgb(0,0,0)" stroke="rgb(0,0,0)" stroke-width="1" opacity="0.8" d="M 203.5 94 L 201.5 97 L 203.5 94 Z " /><path fill="rgb(0,0,0)" stroke="rgb(0,0,0)" stroke-width="1" opacity="0.8" d="M 308.5 94 L 310.5 97 L 308.5 94 Z " /><path fill="rgb(0,0,0)" stroke="rgb(0,0,0)" stroke-width="1" opacity="0.8" d="M 55.5 97 L 53.5 100 L 55.5 97 Z " /><path fill="rgb(0,0,0)" stroke="rgb(0,0,0)" stroke-width="1" opacity="0.8" d="M 456.5 97 L 458.5 100 L 456.5 97 Z " /><path fill="rgb(0,0,0)" stroke="rgb(0,0,0)" stroke-width="1" opacity="0.8" d="M 196.5 100 L 195.5 102 L 196.5 100 Z " /><path fill="rgb(0,0,0)" stroke="rgb(0,0,0)" stroke-width="1" opacity="0.8" d="M 315.5 100 L 316.5 102 L 315.5 100 Z " /><path fill="rgb(0,0,0)" stroke="rgb(0,0,0)" stroke-width="1" opacity="0.8" d="M 51.5 102 L 50.5 104 L 51.5 102 Z " /><path fill="rgb(0,0,0)" stroke="rgb(0,0,0)" stroke-width="1" opacity="0.8" d="M 460.5 102 L 461.5 104 L 460.5 102 Z " /><path fill="rgb(0,0,0)" stroke="rgb(0,0,0)" stroke-width="1" opacity="0.8" d="M 48.5 106 L 47.5 108 L 48.5 106 Z " /><path fill="rgb(0,0,0)" stroke="rgb(0,0,0)" stroke-width="1" opacity="0.8" d="M 191.5 106 L 189.5 109 L 191.5 106 Z " /><path fill="rgb(0,0,0)" stroke="rgb(0,0,0)" stroke-width="1" opacity="0.8" d="M 320.5 106 L 322.5 109 L 320.5 106 Z " /><path fill="rgb(0,0,0)" stroke="rgb(0,0,0)" stroke-width="1" opacity="0.8" d="M 463.5 106 L 464.5 108 L 463.5 106 Z " /><path fill="rgb(0,0,0)" stroke="rgb(0,0,0)" stroke-width="1" opacity="0.8" d="M 46.5 109 L 45.5 111 L 46.5 109 Z " /><path fill="rgb(0,0,0)" stroke="rgb(0,0,0)" stroke-width="1" opacity="0.8" d="M 465.5 109 L 466.5 111 L 465.5 109 Z " /><path fill="rgb(0,0,0)" stroke="rgb(0,0,0)" stroke-width="1" opacity="0.8" d="M 187.5 111 L 186.5 113 L 187.5 111 Z " /><path fill="rgb(0,0,0)" stroke="rgb(0,0,0)" stroke-width="1" opacity="0.8" d="M 324.5 111 L 325.5 113 L 324.5 111 Z " /><path fill="rgb(0,0,0)" stroke="rgb(0,0,0)" stroke-width="1" opacity="0.8" d="M 185.5 114 L 184.5 116 L 185.5 114 Z " /><path fill="rgb(0,0,0)" stroke="rgb(0,0,0)" stroke-width="1" opacity="0.8" d="M 40.5 118 L 39.5 120 L 40.5 118 Z " /><path fill="rgb(0,0,0)" stroke="rgb(0,0,0)" stroke-width="1" opacity="0.8" d="M 471.5 118 L 472.5 120 L 471.5 118 Z " /><path fill="rgb(0,0,0)" stroke="rgb(0,0,0)" stroke-width="1" opacity="0.8" d="M 38.5 121 L 37.5 123 L 38.5 121 Z " /><path fill="rgb(0,0,0)" stroke="rgb(0,0,0)" stroke-width="1" opacity="0.8" d="M 473.5 121 L 474.5 123 L 473.5 121 Z " /><path fill="rgb(0,0,0)" stroke="rgb(0,0,0)" stroke-width="1" opacity="0.8" d="M 29.5 137 L 29 138.5 L 27.5 141 L 28 139.5 L 29.5 137 Z " /><path fill="rgb(0,0,0)" stroke="rgb(0,0,0)" stroke-width="1" opacity="0.8" d="M 482.5 137 L 485 140.5 L 483 139.5 L 482.5 137 Z " /><path fill="rgb(0,0,0)" stroke="rgb(0,0,0)" stroke-width="1" opacity="0.8" d="M 172.5 145 L 173 147.5 L 172 147.5 L 172.5 145 Z " /><path fill="rgb(0,0,0)" stroke="rgb(0,0,0)" stroke-width="1" opacity="0.8" d="M 339.5 145 L 340 147.5 L 339 147.5 L 339.5 145 Z " /><path fill="rgb(0,0,0)" stroke="rgb(0,0,0)" stroke-width="1" opacity="0.8" d="M 171.5 152 L 172 159.5 L 171 159.5 L 171.5 152 Z " /><path fill="rgb(0,0,0)" stroke="rgb(0,0,0)" stroke-width="1" opacity="0.8" d="M 340.5 152 L 341 158.5 L 340 158.5 L 340.5 152 Z " /><path fill="rgb(0,0,0)" stroke="rgb(0,0,0)" stroke-width="1" opacity="0.8" d="M 171.5 162 L 172 170.5 L 171 170.5 L 171.5 162 Z " /><path fill="rgb(0,0,0)" stroke="rgb(0,0,0)" stroke-width="1" opacity="0.8" d="M 340.5 163 L 341 170.5 L 340 170.5 L 340.5 163 Z " /><path fill="rgb(0,0,0)" stroke="rgb(0,0,0)" stroke-width="1" opacity="0.8" d="M 172.5 174 L 173 176.5 L 172 176.5 L 172.5 174 Z " /><path fill="rgb(0,0,0)" stroke="rgb(0,0,0)" stroke-width="1" opacity="0.8" d="M 339.5 174 L 340 176.5 L 339 176.5 L 339.5 174 Z " /><path fill="rgb(0,0,0)" stroke="rgb(0,0,0)" stroke-width="1" opacity="0.8" d="M 183.5 205 L 184.5 207 L 183.5 205 Z " /><path fill="rgb(0,0,0)" stroke="rgb(0,0,0)" stroke-width="1" opacity="0.8" d="M 328.5 205 L 327.5 207 L 328.5 205 Z " /><path fill="rgb(0,0,0)" stroke="rgb(0,0,0)" stroke-width="1" opacity="0.8" d="M 185.5 208 L 186.5 210 L 185.5 208 Z " /><path fill="rgb(0,0,0)" stroke="rgb(0,0,0)" stroke-width="1" opacity="0.8" d="M 326.5 208 L 325.5 210 L 326.5 208 Z " /><path fill="rgb(0,0,0)" stroke="rgb(0,0,0)" stroke-width="1" opacity="0.8" d="M 324.5 211 L 322.5 214 L 324.5 211 Z " /><path fill="rgb(0,0,0)" stroke="rgb(0,0,0)" stroke-width="1" opacity="0.8" d="M 188.5 212 L 189.5 214 L 188.5 212 Z " /><path fill="rgb(0,0,0)" stroke="rgb(0,0,0)" stroke-width="1" opacity="0.8" d="M 3.5 213 L 4 215.5 L 3 215.5 L 3.5 213 Z " /><path fill="rgb(0,0,0)" stroke="rgb(0,0,0)" stroke-width="1" opacity="0.8" d="M 508.5 213 L 509 215.5 L 508 215.5 L 508.5 213 Z " /><path fill="rgb(0,0,0)" stroke="rgb(0,0,0)" stroke-width="1" opacity="0.8" d="M 191.5 216 L 200.5 226 L 191.5 216 Z " /><path fill="rgb(0,0,0)" stroke="rgb(0,0,0)" stroke-width="1" opacity="0.8" d="M 320.5 216 L 310.5 227 L 320.5 216 Z " /><path fill="rgb(0,0,0)" stroke="rgb(0,0,0)" stroke-width="1" opacity="0.8" d="M 2.5 220 L 3 223.5 L 2 223.5 L 2.5 220 Z " /><path fill="rgb(0,0,0)" stroke="rgb(0,0,0)" stroke-width="1" opacity="0.8" d="M 509.5 220 L 510 223.5 L 509 223.5 L 509.5 220 Z " /><path fill="rgb(0,0,0)" stroke="rgb(0,0,0)" stroke-width="1" opacity="0.8" d="M 203.5 227 L 205.5 230 L 203.5 227 Z " /><path fill="rgb(0,0,0)" stroke="rgb(0,0,0)" stroke-width="1" opacity="0.8" d="M 308.5 227 L 306.5 230 L 308.5 227 Z " /><path fill="rgb(0,0,0)" stroke="rgb(0,0,0)" stroke-width="1" opacity="0.8" d="M 1.5 228 L 2 232.5 L 1 232.5 L 1.5 228 Z " /><path fill="rgb(0,0,0)" stroke="rgb(0,0,0)" stroke-width="1" opacity="0.8" d="M 510.5 228 L 511 232.5 L 510 232.5 L 510.5 228 Z " /><path fill="rgb(0,0,0)" stroke="rgb(0,0,0)" stroke-width="1" opacity="0.8" d="M 207.5 230 L 208.5 232 L 207.5 230 Z " /><path fill="rgb(0,0,0)" stroke="rgb(0,0,0)" stroke-width="1" opacity="0.8" d="M 304.5 230 L 303.5 232 L 304.5 230 Z " /><path fill="rgb(0,0,0)" stroke="rgb(0,0,0)" stroke-width="1" opacity="0.8" d="M 210.5 232 L 211.5 234 L 210.5 232 Z " /><path fill="rgb(0,0,0)" stroke="rgb(0,0,0)" stroke-width="1" opacity="0.8" d="M 301.5 232 L 300.5 234 L 301.5 232 Z " /><path fill="rgb(0,0,0)" stroke="rgb(0,0,0)" stroke-width="1" opacity="0.8" d="M 215.5 235 L 218 236.5 L 216.5 237 L 215.5 235 Z " /><path fill="rgb(0,0,0)" stroke="rgb(0,0,0)" stroke-width="1" opacity="0.8" d="M 0.5 239 L 1 251.5 L 0 251.5 L 0.5 239 Z " /><path fill="rgb(0,0,0)" stroke="rgb(0,0,0)" stroke-width="1" opacity="0.8" d="M 511.5 239 L 512 251.5 L 511 251.5 L 511.5 239 Z " /><path fill="rgb(0,0,0)" stroke="rgb(0,0,0)" stroke-width="1" opacity="0.8" d="M 239.5 244 L 242 244.5 L 239.5 245 L 239.5 244 Z " /><path fill="rgb(0,0,0)" stroke="rgb(0,0,0)" stroke-width="1" opacity="0.8" d="M 270.5 244 L 273 244.5 L 270.5 245 L 270.5 244 Z " /><path fill="rgb(0,0,0)" stroke="rgb(0,0,0)" stroke-width="1" opacity="0.8" d="M 245.5 245 L 250 245.5 L 245.5 246 L 245.5 245 Z " /><path fill="rgb(0,0,0)" stroke="rgb(0,0,0)" stroke-width="1" opacity="0.8" d="M 262.5 245 L 267 245.5 L 262.5 246 L 262.5 245 Z " /><path fill="rgb(0,0,0)" stroke="rgb(0,0,0)" stroke-width="1" opacity="0.8" d="M 0.5 260 L 1 272.5 L 0 272.5 L 0.5 260 Z " /><path fill="rgb(0,0,0)" stroke="rgb(0,0,0)" stroke-width="1" opacity="0.8" d="M 511.5 260 L 512 272.5 L 511 272.5 L 511.5 260 Z " /><path fill="rgb(0,0,0)" stroke="rgb(0,0,0)" stroke-width="1" opacity="0.8" d="M 1.5 279 L 2 283.5 L 1 283.5 L 1.5 279 Z " /><path fill="rgb(0,0,0)" stroke="rgb(0,0,0)" stroke-width="1" opacity="0.8" d="M 510.5 279 L 511 283.5 L 510 283.5 L 510.5 279 Z " /><path fill="rgb(0,0,0)" stroke="rgb(0,0,0)" stroke-width="1" opacity="0.8" d="M 196.5 287 L 202 287.5 L 196.5 288 L 196.5 287 Z " /><path fill="rgb(0,0,0)" stroke="rgb(0,0,0)" stroke-width="1" opacity="0.8" d="M 310.5 287 L 316 287.5 L 310.5 288 L 310.5 287 Z " /><path fill="rgb(0,0,0)" stroke="rgb(0,0,0)" stroke-width="1" opacity="0.8" d="M 2.5 288 L 3 291.5 L 2 291.5 L 2.5 288 Z " /><path fill="rgb(0,0,0)" stroke="rgb(0,0,0)" stroke-width="1" opacity="0.8" d="M 189.5 288 L 193 288.5 L 189.5 289 L 189.5 288 Z " /><path fill="rgb(0,0,0)" stroke="rgb(0,0,0)" stroke-width="1" opacity="0.8" d="M 319.5 288 L 323 288.5 L 319.5 289 L 319.5 288 Z " /><path fill="rgb(0,0,0)" stroke="rgb(0,0,0)" stroke-width="1" opacity="0.8" d="M 509.5 288 L 510 291.5 L 509 291.5 L 509.5 288 Z " /><path fill="rgb(0,0,0)" stroke="rgb(0,0,0)" stroke-width="1" opacity="0.8" d="M 3.5 296 L 4 298.5 L 3 298.5 L 3.5 296 Z " /><path fill="rgb(0,0,0)" stroke="rgb(0,0,0)" stroke-width="1" opacity="0.8" d="M 508.5 296 L 509 298.5 L 508 298.5 L 508.5 296 Z " /><path fill="rgb(0,0,0)" stroke="rgb(0,0,0)" stroke-width="1" opacity="0.8" d="M 163.5 298 L 162.5 300 L 163.5 298 Z " /><path fill="rgb(0,0,0)" stroke="rgb(0,0,0)" stroke-width="1" opacity="0.8" d="M 348.5 298 L 349.5 300 L 348.5 298 Z " /><path fill="rgb(0,0,0)" stroke="rgb(0,0,0)" stroke-width="1" opacity="0.8" d="M 158.5 301 L 157.5 303 L 158.5 301 Z " /><path fill="rgb(0,0,0)" stroke="rgb(0,0,0)" stroke-width="1" opacity="0.8" d="M 353.5 301 L 354.5 303 L 353.5 301 Z " /><path fill="rgb(0,0,0)" stroke="rgb(0,0,0)" stroke-width="1" opacity="0.8" d="M 154.5 304 L 153.5 306 L 154.5 304 Z " /><path fill="rgb(0,0,0)" stroke="rgb(0,0,0)" stroke-width="1" opacity="0.8" d="M 357.5 304 L 358.5 306 L 357.5 304 Z " /><path fill="rgb(0,0,0)" stroke="rgb(0,0,0)" stroke-width="1" opacity="0.8" d="M 149.5 308 L 141.5 317 L 149.5 308 Z " /><path fill="rgb(0,0,0)" stroke="rgb(0,0,0)" stroke-width="1" opacity="0.8" d="M 362.5 308 L 370.5 317 L 362.5 308 Z " /><path fill="rgb(0,0,0)" stroke="rgb(0,0,0)" stroke-width="1" opacity="0.8" d="M 139.5 319 L 137.5 322 L 139.5 319 Z " /><path fill="rgb(0,0,0)" stroke="rgb(0,0,0)" stroke-width="1" opacity="0.8" d="M 372.5 319 L 373.5 321 L 372.5 319 Z " /><path fill="rgb(0,0,0)" stroke="rgb(0,0,0)" stroke-width="1" opacity="0.8" d="M 136.5 323 L 135.5 325 L 136.5 323 Z " /><path fill="rgb(0,0,0)" stroke="rgb(0,0,0)" stroke-width="1" opacity="0.8" d="M 375.5 323 L 376.5 325 L 375.5 323 Z " /><path fill="rgb(0,0,0)" stroke="rgb(0,0,0)" stroke-width="1" opacity="0.8" d="M 134.5 326 L 133.5 328 L 134.5 326 Z " /><path fill="rgb(0,0,0)" stroke="rgb(0,0,0)" stroke-width="1" opacity="0.8" d="M 377.5 326 L 378.5 328 L 377.5 326 Z " /><path fill="rgb(0,0,0)" stroke="rgb(0,0,0)" stroke-width="1" opacity="0.8" d="M 131.5 331 L 131 332.5 L 130.5 334 L 130 332.5 L 131.5 331 Z " /><path fill="rgb(0,0,0)" stroke="rgb(0,0,0)" stroke-width="1" opacity="0.8" d="M 122.5 354 L 123 356.5 L 122 356.5 L 122.5 354 Z " /><path fill="rgb(0,0,0)" stroke="rgb(0,0,0)" stroke-width="1" opacity="0.8" d="M 389.5 355 L 390 357.5 L 389 357.5 L 389.5 355 Z " /><path fill="rgb(0,0,0)" stroke="rgb(0,0,0)" stroke-width="1" opacity="0.8" d="M 121.5 360 L 122 363.5 L 121 363.5 L 121.5 360 Z " /><path fill="rgb(0,0,0)" stroke="rgb(0,0,0)" stroke-width="1" opacity="0.8" d="M 390.5 361 L 391 365.5 L 390 365.5 L 390.5 361 Z " /><path fill="rgb(0,0,0)" stroke="rgb(0,0,0)" stroke-width="1" opacity="0.8" d="M 27.5 371 L 30 374.5 L 28 373.5 L 27.5 371 Z " /><path fill="rgb(0,0,0)" stroke="rgb(0,0,0)" stroke-width="1" opacity="0.8" d="M 484.5 371 L 484 372.5 L 482.5 375 L 483 373.5 L 484.5 371 Z " /><path fill="rgb(0,0,0)" stroke="rgb(0,0,0)" stroke-width="1" opacity="0.8" d="M 390.5 376 L 391 379.5 L 390 379.5 L 390.5 376 Z " /><path fill="rgb(0,0,0)" stroke="rgb(0,0,0)" stroke-width="1" opacity="0.8" d="M 121.5 377 L 122 380.5 L 121 380.5 L 121.5 377 Z " /><path fill="rgb(0,0,0)" stroke="rgb(0,0,0)" stroke-width="1" opacity="0.8" d="M 387.5 388 L 386.5 390 L 387.5 388 Z " /><path fill="rgb(0,0,0)" stroke="rgb(0,0,0)" stroke-width="1" opacity="0.8" d="M 37.5 389 L 38.5 391 L 37.5 389 Z " /><path fill="rgb(0,0,0)" stroke="rgb(0,0,0)" stroke-width="1" opacity="0.8" d="M 474.5 389 L 473.5 391 L 474.5 389 Z " /><path fill="rgb(0,0,0)" stroke="rgb(0,0,0)" stroke-width="1" opacity="0.8" d="M 39.5 392 L 40.5 394 L 39.5 392 Z " /><path fill="rgb(0,0,0)" stroke="rgb(0,0,0)" stroke-width="1" opacity="0.8" d="M 472.5 392 L 471.5 394 L 472.5 392 Z " /><path fill="rgb(0,0,0)" stroke="rgb(0,0,0)" stroke-width="1" opacity="0.8" d="M 127.5 393 L 129.5 396 L 127.5 393 Z " /><path fill="rgb(0,0,0)" stroke="rgb(0,0,0)" stroke-width="1" opacity="0.8" d="M 384.5 393 L 381.5 397 L 384.5 393 Z " /><path fill="rgb(0,0,0)" stroke="rgb(0,0,0)" stroke-width="1" opacity="0.8" d="M 377.5 400 L 375.5 403 L 377.5 400 Z " /><path fill="rgb(0,0,0)" stroke="rgb(0,0,0)" stroke-width="1" opacity="0.8" d="M 45.5 401 L 46.5 403 L 45.5 401 Z " /><path fill="rgb(0,0,0)" stroke="rgb(0,0,0)" stroke-width="1" opacity="0.8" d="M 135.5 401 L 136.5 403 L 135.5 401 Z " /><path fill="rgb(0,0,0)" stroke="rgb(0,0,0)" stroke-width="1" opacity="0.8" d="M 466.5 401 L 465.5 403 L 466.5 401 Z " /><path fill="rgb(0,0,0)" stroke="rgb(0,0,0)" stroke-width="1" opacity="0.8" d="M 47.5 404 L 48.5 406 L 47.5 404 Z " /><path fill="rgb(0,0,0)" stroke="rgb(0,0,0)" stroke-width="1" opacity="0.8" d="M 139.5 404 L 141.5 407 L 139.5 404 Z " /><path fill="rgb(0,0,0)" stroke="rgb(0,0,0)" stroke-width="1" opacity="0.8" d="M 372.5 404 L 370.5 407 L 372.5 404 Z " /><path fill="rgb(0,0,0)" stroke="rgb(0,0,0)" stroke-width="1" opacity="0.8" d="M 464.5 404 L 463.5 406 L 464.5 404 Z " /><path fill="rgb(0,0,0)" stroke="rgb(0,0,0)" stroke-width="1" opacity="0.8" d="M 368.5 407 L 366.5 410 L 368.5 407 Z " /><path fill="rgb(0,0,0)" stroke="rgb(0,0,0)" stroke-width="1" opacity="0.8" d="M 50.5 408 L 51.5 410 L 50.5 408 Z " /><path fill="rgb(0,0,0)" stroke="rgb(0,0,0)" stroke-width="1" opacity="0.8" d="M 144.5 408 L 145.5 410 L 144.5 408 Z " /><path fill="rgb(0,0,0)" stroke="rgb(0,0,0)" stroke-width="1" opacity="0.8" d="M 461.5 408 L 460.5 410 L 461.5 408 Z " /><path fill="rgb(0,0,0)" stroke="rgb(0,0,0)" stroke-width="1" opacity="0.8" d="M 364.5 410 L 363.5 412 L 364.5 410 Z " /><path fill="rgb(0,0,0)" stroke="rgb(0,0,0)" stroke-width="1" opacity="0.8" d="M 53.5 412 L 55.5 415 L 53.5 412 Z " /><path fill="rgb(0,0,0)" stroke="rgb(0,0,0)" stroke-width="1" opacity="0.8" d="M 361.5 412 L 360.5 414 L 361.5 412 Z " /><path fill="rgb(0,0,0)" stroke="rgb(0,0,0)" stroke-width="1" opacity="0.8" d="M 458.5 412 L 456.5 415 L 458.5 412 Z " /><path fill="rgb(0,0,0)" stroke="rgb(0,0,0)" stroke-width="1" opacity="0.8" d="M 153.5 414 L 154.5 416 L 153.5 414 Z " /><path fill="rgb(0,0,0)" stroke="rgb(0,0,0)" stroke-width="1" opacity="0.8" d="M 358.5 414 L 357.5 416 L 358.5 414 Z " /><path fill="rgb(0,0,0)" stroke="rgb(0,0,0)" stroke-width="1" opacity="0.8" d="M 156.5 416 L 157.5 418 L 156.5 416 Z " /><path fill="rgb(0,0,0)" stroke="rgb(0,0,0)" stroke-width="1" opacity="0.8" d="M 355.5 416 L 354.5 418 L 355.5 416 Z " /><path fill="rgb(0,0,0)" stroke="rgb(0,0,0)" stroke-width="1" opacity="0.8" d="M 57.5 417 L 59.5 420 L 57.5 417 Z " /><path fill="rgb(0,0,0)" stroke="rgb(0,0,0)" stroke-width="1" opacity="0.8" d="M 454.5 417 L 452.5 420 L 454.5 417 Z " /><path fill="rgb(0,0,0)" stroke="rgb(0,0,0)" stroke-width="1" opacity="0.8" d="M 159.5 418 L 160.5 420 L 159.5 418 Z " /><path fill="rgb(0,0,0)" stroke="rgb(0,0,0)" stroke-width="1" opacity="0.8" d="M 350.5 419 L 349.5 421 L 350.5 419 Z " /><path fill="rgb(0,0,0)" stroke="rgb(0,0,0)" stroke-width="1" opacity="0.8" d="M 62.5 423 L 65.5 427 L 62.5 423 Z " /><path fill="rgb(0,0,0)" stroke="rgb(0,0,0)" stroke-width="1" opacity="0.8" d="M 449.5 423 L 446.5 427 L 449.5 423 Z " /><path fill="rgb(0,0,0)" stroke="rgb(0,0,0)" stroke-width="1" opacity="0.8" d="M 72.5 434 L 77.5 440 L 72.5 434 Z " /><path fill="rgb(0,0,0)" stroke="rgb(0,0,0)" stroke-width="1" opacity="0.8" d="M 439.5 434 L 434.5 440 L 439.5 434 Z " /><path fill="rgb(0,0,0)" stroke="rgb(0,0,0)" stroke-width="1" opacity="0.8" d="M 209.5 439 L 212 439.5 L 209.5 440 L 209.5 439 Z " /><path fill="rgb(0,0,0)" stroke="rgb(0,0,0)" stroke-width="1" opacity="0.8" d="M 300.5 439 L 303 439.5 L 300.5 440 L 300.5 439 Z " /><path fill="rgb(0,0,0)" stroke="rgb(0,0,0)" stroke-width="1" opacity="0.8" d="M 223.5 442 L 226 442.5 L 223.5 443 L 223.5 442 Z " /><path fill="rgb(0,0,0)" stroke="rgb(0,0,0)" stroke-width="1" opacity="0.8" d="M 286.5 442 L 289 442.5 L 286.5 443 L 286.5 442 Z " /><path fill="rgb(0,0,0)" stroke="rgb(0,0,0)" stroke-width="1" opacity="0.8" d="M 230.5 443 L 234 443.5 L 230.5 444 L 230.5 443 Z " /><path fill="rgb(0,0,0)" stroke="rgb(0,0,0)" stroke-width="1" opacity="0.8" d="M 278.5 443 L 282 443.5 L 278.5 444 L 278.5 443 Z " /><path fill="rgb(0,0,0)" stroke="rgb(0,0,0)" stroke-width="1" opacity="0.8" d="M 237.5 444 L 246 444.5 L 237.5 445 L 237.5 444 Z " /><path fill="rgb(0,0,0)" stroke="rgb(0,0,0)" stroke-width="1" opacity="0.8" d="M 266.5 444 L 275 444.5 L 266.5 445 L 266.5 444 Z " /><path fill="rgb(0,0,0)" stroke="rgb(0,0,0)" stroke-width="1" opacity="0.8" d="M 85.5 446 L 88.5 450 L 85.5 446 Z " /><path fill="rgb(0,0,0)" stroke="rgb(0,0,0)" stroke-width="1" opacity="0.8" d="M 426.5 446 L 423.5 450 L 426.5 446 Z " /><path fill="rgb(0,0,0)" stroke="rgb(0,0,0)" stroke-width="1" opacity="0.8" d="M 92.5 452 L 94.5 455 L 92.5 452 Z " /><path fill="rgb(0,0,0)" stroke="rgb(0,0,0)" stroke-width="1" opacity="0.8" d="M 419.5 452 L 417.5 455 L 419.5 452 Z " /><path fill="rgb(0,0,0)" stroke="rgb(0,0,0)" stroke-width="1" opacity="0.8" d="M 97.5 456 L 99.5 459 L 97.5 456 Z " /><path fill="rgb(0,0,0)" stroke="rgb(0,0,0)" stroke-width="1" opacity="0.8" d="M 414.5 456 L 412.5 459 L 414.5 456 Z " /><path fill="rgb(0,0,0)" stroke="rgb(0,0,0)" stroke-width="1" opacity="0.8" d="M 102.5 460 L 103.5 462 L 102.5 460 Z " /><path fill="rgb(0,0,0)" stroke="rgb(0,0,0)" stroke-width="1" opacity="0.8" d="M 409.5 460 L 408.5 462 L 409.5 460 Z " /><path fill="rgb(0,0,0)" stroke="rgb(0,0,0)" stroke-width="1" opacity="0.8" d="M 106.5 463 L 107.5 465 L 106.5 463 Z " /><path fill="rgb(0,0,0)" stroke="rgb(0,0,0)" stroke-width="1" opacity="0.8" d="M 405.5 463 L 404.5 465 L 405.5 463 Z " /><path fill="rgb(0,0,0)" stroke="rgb(0,0,0)" stroke-width="1" opacity="0.8" d="M 109.5 465 L 110.5 467 L 109.5 465 Z " /><path fill="rgb(0,0,0)" stroke="rgb(0,0,0)" stroke-width="1" opacity="0.8" d="M 402.5 465 L 401.5 467 L 402.5 465 Z " /><path fill="rgb(0,0,0)" stroke="rgb(0,0,0)" stroke-width="1" opacity="0.8" d="M 118.5 471 L 119.5 473 L 118.5 471 Z " /><path fill="rgb(0,0,0)" stroke="rgb(0,0,0)" stroke-width="1" opacity="0.8" d="M 393.5 471 L 392.5 473 L 393.5 471 Z " /><path fill="rgb(0,0,0)" stroke="rgb(0,0,0)" stroke-width="1" opacity="0.8" d="M 121.5 473 L 122.5 475 L 121.5 473 Z " /><path fill="rgb(0,0,0)" stroke="rgb(0,0,0)" stroke-width="1" opacity="0.8" d="M 390.5 473 L 389.5 475 L 390.5 473 Z " /><path fill="rgb(0,0,0)" stroke="rgb(0,0,0)" stroke-width="1" opacity="0.8" d="M 137.5 482 L 141 484.5 L 139.5 484 L 137.5 482 Z " /><path fill="rgb(0,0,0)" stroke="rgb(0,0,0)" stroke-width="1" opacity="0.8" d="M 374.5 482 L 373.5 484 L 371.5 485 L 372.5 483 L 374.5 482 Z " /><path fill="rgb(0,0,0)" stroke="rgb(0,0,0)" stroke-width="1" opacity="0.8" d="M 198.5 505 L 201 505.5 L 198.5 506 L 198.5 505 Z " /><path fill="rgb(0,0,0)" stroke="rgb(0,0,0)" stroke-width="1" opacity="0.8" d="M 311.5 505 L 314 505.5 L 311.5 506 L 311.5 505 Z " /><path fill="rgb(0,0,0)" stroke="rgb(0,0,0)" stroke-width="1" opacity="0.8" d="M 208.5 507 L 211 507.5 L 208.5 508 L 208.5 507 Z " /><path fill="rgb(0,0,0)" stroke="rgb(0,0,0)" stroke-width="1" opacity="0.8" d="M 301.5 507 L 304 507.5 L 301.5 508 L 301.5 507 Z " /><path fill="rgb(0,0,0)" stroke="rgb(0,0,0)" stroke-width="1" opacity="0.8" d="M 213.5 508 L 216 508.5 L 213.5 509 L 213.5 508 Z " /><path fill="rgb(0,0,0)" stroke="rgb(0,0,0)" stroke-width="1" opacity="0.8" d="M 296.5 508 L 299 508.5 L 296.5 509 L 296.5 508 Z " /><path fill="rgb(0,0,0)" stroke="rgb(0,0,0)" stroke-width="1" opacity="0.8" d="M 220.5 509 L 224 509.5 L 220.5 510 L 220.5 509 Z " /><path fill="rgb(0,0,0)" stroke="rgb(0,0,0)" stroke-width="1" opacity="0.8" d="M 288.5 509 L 292 509.5 L 288.5 510 L 288.5 509 Z " /><path fill="rgb(0,0,0)" stroke="rgb(0,0,0)" stroke-width="1" opacity="0.8" d="M 228.5 510 L 233 510.5 L 228.5 511 L 228.5 510 Z " /><path fill="rgb(0,0,0)" stroke="rgb(0,0,0)" stroke-width="1" opacity="0.8" d="M 279.5 510 L 284 510.5 L 279.5 511 L 279.5 510 Z " /><path fill="rgb(0,0,0)" stroke="rgb(0,0,0)" stroke-width="1" opacity="0.8" d="M 240.5 511 L 252 511.5 L 240.5 512 L 240.5 511 Z " /><path fill="rgb(0,0,0)" stroke="rgb(0,0,0)" stroke-width="1" opacity="0.8" d="M 260.5 511 L 272 511.5 L 260.5 512 L 260.5 511 Z " /><path fill="rgb(0,0,0)" stroke="rgb(0,0,0)" stroke-width="1" opacity="1" d="M 252.5 0 L 278.5 1 L 279.5 2 L 287.5 2 L 288.5 3 L 306.5 5 L 330.5 11 L 355.5 20 Q 409.5 43.5 446 84.5 Q 478.5 120 497 169.5 Q 503.9 188.6 508 210.5 L 510 232.5 L 511 233.5 L 512 259.5 L 511 260.5 L 510 287.5 L 509 288.5 L 509 295.5 L 506 311.5 L 501 330.5 L 492 355.5 Q 468.5 409.5 427.5 446 Q 392 478.5 342.5 497 L 323.5 503 L 295.5 509 L 279.5 510 L 278.5 511 L 252.5 512 L 251.5 511 L 233.5 511 L 232.5 510 L 224.5 510 L 223.5 509 L 205.5 507 L 181.5 501 L 156.5 492 Q 102.5 468.5 66 427.5 Q 33.5 392 15 342.5 Q 8.1 323.4 4 301.5 L 2 279.5 L 1 278.5 L 0 252.5 L 1 251.5 L 2 224.5 L 3 223.5 L 3 216.5 L 6 200.5 L 11 181.5 L 20 156.5 Q 43.5 102.5 84.5 66 Q 115.4 37.9 156.5 20 L 181.5 11 L 205.5 5 L 223.5 3 L 224.5 2 L 232.5 2 L 233.5 1 L 251.5 1 L 252.5 0 Z M 250 76 L 230 80 L 220 84 Q 206 90 197 100 Q 185 111 178 127 L 174 138 L 171 153 L 171 171 L 173 182 Q 179 202 191 217 Q 209 240 246 246 L 267 246 L 281 243 Q 298 238 311 227 Q 335 208 341 171 L 340 146 L 335 129 Q 328 113 317 102 Q 303 87 283 80 L 263 76 L 250 76 Z M 197 287 L 182 290 L 174 293 Q 160 299 150 308 Q 127 326 121 361 L 121 381 L 127 394 Q 149 417 181 430 L 206 439 L 238 445 L 275 445 L 307 439 Q 347 427 376 403 Q 387 395 391 380 L 391 362 L 388 348 Q 382 329 371 317 Q 353 296 323 288 Q 317 290 316 287 L 197 287 Z " /></svg>