<svg width="512" height="512" version="1.1" xmlns="http://www.w3.org/2000/svg" desc="Created with imagetracer.js version 1.2.6" ><path fill="rgb(0,0,0)" stroke="rgb(0,0,0)" stroke-width="1" opacity="0" d="M 0 0 L 390.5 0 L 391 0.5 L 391 30 L 459.5 30 L 361.5 129 L 315.5 173 L 195.5 54 L 5 243.5 L 5 245.5 L 24.5 265 L 26.5 265 L 196.5 97 L 316.5 216 L 481.5 52 L 482 120 L 511.5 120 L 512 120.5 L 512 482 L 482.5 482 L 482 481.5 L 482 180 L 391 180 L 391 481.5 L 390.5 482 L 361 482 L 361 300 L 271 300 L 271 481.5 L 270.5 482 L 241 482 L 241 240 L 151 240 L 151 481.5 L 150.5 482 L 121 482 L 121 330 L 30 330 L 30 481.5 L 29.5 482 L 0 482 L 0 0 Z " /><path fill="rgb(0,0,0)" stroke="rgb(0,0,0)" stroke-width="1" opacity="0.7843137254901961" d="M 460.5 30 L 414.5 77 L 460.5 30 Z " /><path fill="rgb(0,0,0)" stroke="rgb(0,0,0)" stroke-width="1" opacity="0.7843137254901961" d="M 481.5 51 L 426.5 107 L 481.5 51 Z " /><path fill="rgb(0,0,0)" stroke="rgb(0,0,0)" stroke-width="1" opacity="0.7843137254901961" d="M 195.5 54 L 316.5 173 L 361 129.5 L 315.5 174 L 195.5 55 L 134 115.5 L 195.5 54 Z " /><path fill="rgb(0,0,0)" stroke="rgb(0,0,0)" stroke-width="1" opacity="0.7843137254901961" d="M 195.5 96 L 316.5 215 L 369 163.5 L 315.5 216 L 195.5 97 L 138 153.5 L 195.5 96 Z " /><path fill="rgb(0,0,0)" stroke="rgb(0,0,0)" stroke-width="1" opacity="0.7843137254901961" d="M 63.5 185 L 5.5 244 L 63.5 185 Z " /><path fill="rgb(0,0,0)" stroke="rgb(0,0,0)" stroke-width="1" opacity="0.7843137254901961" d="M 79.5 211 L 26.5 265 L 79.5 211 Z " /><path fill="rgb(0,0,0)" stroke="rgb(0,0,0)" stroke-width="1" opacity="0.7843137254901961" d="M 5.5 245 L 24.5 265 L 5.5 245 Z " /><path fill="rgb(0,0,0)" stroke="rgb(0,0,0)" stroke-width="1" opacity="1" d="M 391 0 L 512 0 L 512 120 L 482 120 L 482 51.5 L 369.5 163 L 315.5 215 L 195.5 96 L 25.5 265 L 5 244.5 L 133.5 116 L 196.5 55 L 316.5 174 L 461 30.5 L 391 30 L 391 0 Z " /><path fill="rgb(0,0,0)" stroke="rgb(0,0,0)" stroke-width="1" opacity="1" d="M 391 180 L 482 180 L 482 481.5 L 482.5 482 L 512 482 L 512 512 L 0.5 512 L 0 511.5 L 0 482 L 29.5 482 L 30 481.5 L 30 330 L 121 330 L 121 481.5 L 121.5 482 L 151 482 L 151 240 L 241 240 L 241 481.5 L 241.5 482 L 271 482 L 271 300 L 361 300 L 361 481.5 L 361.5 482 L 391 482 L 391 180 Z " /></svg>