<svg width="512" height="512" version="1.1" xmlns="http://www.w3.org/2000/svg" desc="Created with imagetracer.js version 1.2.6" ><path fill="rgb(0,0,0)" stroke="rgb(0,0,0)" stroke-width="1" opacity="0" d="M 0 0 L 512 0 L 512 250.5 L 511 250.5 L 510 246.5 L 497 229.5 L 463.5 193 Q 420.2 150.3 360.5 124 L 338.5 116 L 307.5 108 L 302.5 108 L 289.5 105 L 280.5 105 L 279.5 104 L 250.5 103 L 249.5 104 L 222.5 105 L 199.5 109 L 173.5 116 L 142.5 128 Q 80.9 157.4 37 204.5 L 10 235.5 L 3 244.5 L 0.5 251 L 0 0 Z " /><path fill="rgb(0,0,0)" stroke="rgb(0,0,0)" stroke-width="1" opacity="0" d="M 241.5 149 L 269.5 149 L 296.5 156 Q 318.1 164.9 333 180.5 Q 347.5 195 356 215.5 L 363 241.5 L 363 270.5 Q 354.6 315.6 324.5 339 Q 310.5 351 291.5 358 L 270.5 363 L 242.5 363 L 215.5 356 Q 193.9 347.1 179 331.5 Q 164.5 317 156 296.5 L 149 270.5 L 149 241.5 Q 156.4 201.9 180.5 179 Q 195.1 164.6 215.5 156 L 241.5 149 Z M 249 198 L 232 203 L 221 210 Q 203 223 198 249 L 198 264 L 201 276 Q 205 288 214 297 L 232 309 L 250 314 L 269 313 L 281 309 L 292 302 Q 309 289 314 264 L 314 248 L 313 243 Q 309 227 300 218 Q 291 208 279 202 L 265 198 L 249 198 Z " /><path fill="rgb(0,0,0)" stroke="rgb(0,0,0)" stroke-width="1" opacity="0" d="M 0.5 261 L 4 268.5 L 15 282.5 L 48.5 319 Q 91.8 361.7 151.5 388 L 173.5 396 L 204.5 404 L 209.5 404 L 222.5 407 L 231.5 407 L 232.5 408 L 261.5 409 L 262.5 408 L 289.5 407 L 312.5 403 L 338.5 396 L 369.5 384 Q 431.1 354.6 475 307.5 L 502 276.5 L 509 267.5 L 511.5 261 L 512 512 L 0 512 L 0.5 261 Z " /><path fill="rgb(0,0,0)" stroke="rgb(0,0,0)" stroke-width="1" opacity="0.792156862745098" d="M 250.5 103 L 262 103.5 L 250.5 104 L 250.5 103 Z " /><path fill="rgb(0,0,0)" stroke="rgb(0,0,0)" stroke-width="1" opacity="0.792156862745098" d="M 232.5 104 L 237 104.5 L 232.5 105 L 232.5 104 Z " /><path fill="rgb(0,0,0)" stroke="rgb(0,0,0)" stroke-width="1" opacity="0.792156862745098" d="M 275.5 104 L 280 104.5 L 275.5 105 L 275.5 104 Z " /><path fill="rgb(0,0,0)" stroke="rgb(0,0,0)" stroke-width="1" opacity="0.792156862745098" d="M 222.5 105 L 227 105.5 L 222.5 106 L 222.5 105 Z " /><path fill="rgb(0,0,0)" stroke="rgb(0,0,0)" stroke-width="1" opacity="0.792156862745098" d="M 285.5 105 L 290 105.5 L 285.5 106 L 285.5 105 Z " /><path fill="rgb(0,0,0)" stroke="rgb(0,0,0)" stroke-width="1" opacity="0.792156862745098" d="M 210.5 107 L 213 107.5 L 210.5 108 L 210.5 107 Z " /><path fill="rgb(0,0,0)" stroke="rgb(0,0,0)" stroke-width="1" opacity="0.792156862745098" d="M 299.5 107 L 302 107.5 L 299.5 108 L 299.5 107 Z " /><path fill="rgb(0,0,0)" stroke="rgb(0,0,0)" stroke-width="1" opacity="0.792156862745098" d="M 204.5 108 L 207 108.5 L 204.5 109 L 204.5 108 Z " /><path fill="rgb(0,0,0)" stroke="rgb(0,0,0)" stroke-width="1" opacity="0.792156862745098" d="M 305.5 108 L 308 108.5 L 305.5 109 L 305.5 108 Z " /><path fill="rgb(0,0,0)" stroke="rgb(0,0,0)" stroke-width="1" opacity="0.792156862745098" d="M 122.5 138 L 121.5 140 L 122.5 138 Z " /><path fill="rgb(0,0,0)" stroke="rgb(0,0,0)" stroke-width="1" opacity="0.792156862745098" d="M 389.5 138 L 390.5 140 L 389.5 138 Z " /><path fill="rgb(0,0,0)" stroke="rgb(0,0,0)" stroke-width="1" opacity="0.792156862745098" d="M 115.5 142 L 114.5 144 L 115.5 142 Z " /><path fill="rgb(0,0,0)" stroke="rgb(0,0,0)" stroke-width="1" opacity="0.792156862745098" d="M 396.5 142 L 397.5 144 L 396.5 142 Z " /><path fill="rgb(0,0,0)" stroke="rgb(0,0,0)" stroke-width="1" opacity="0.792156862745098" d="M 110.5 145 L 109.5 147 L 110.5 145 Z " /><path fill="rgb(0,0,0)" stroke="rgb(0,0,0)" stroke-width="1" opacity="0.792156862745098" d="M 401.5 145 L 402.5 147 L 401.5 145 Z " /><path fill="rgb(0,0,0)" stroke="rgb(0,0,0)" stroke-width="1" opacity="0.792156862745098" d="M 105.5 148 L 104.5 150 L 105.5 148 Z " /><path fill="rgb(0,0,0)" stroke="rgb(0,0,0)" stroke-width="1" opacity="0.792156862745098" d="M 246.5 148 L 266 148.5 L 246.5 149 L 246.5 148 Z " /><path fill="rgb(0,0,0)" stroke="rgb(0,0,0)" stroke-width="1" opacity="0.792156862745098" d="M 406.5 148 L 407.5 150 L 406.5 148 Z " /><path fill="rgb(0,0,0)" stroke="rgb(0,0,0)" stroke-width="1" opacity="0.792156862745098" d="M 238.5 149 L 241 149.5 L 238.5 150 L 238.5 149 Z " /><path fill="rgb(0,0,0)" stroke="rgb(0,0,0)" stroke-width="1" opacity="0.792156862745098" d="M 270.5 149 L 274 149.5 L 270.5 150 L 270.5 149 Z " /><path fill="rgb(0,0,0)" stroke="rgb(0,0,0)" stroke-width="1" opacity="0.792156862745098" d="M 276.5 150 L 279 150.5 L 276.5 151 L 276.5 150 Z " /><path fill="rgb(0,0,0)" stroke="rgb(0,0,0)" stroke-width="1" opacity="0.792156862745098" d="M 409.5 150 L 410.5 152 L 409.5 150 Z " /><path fill="rgb(0,0,0)" stroke="rgb(0,0,0)" stroke-width="1" opacity="0.792156862745098" d="M 99.5 152 L 98.5 154 L 99.5 152 Z " /><path fill="rgb(0,0,0)" stroke="rgb(0,0,0)" stroke-width="1" opacity="0.792156862745098" d="M 412.5 152 L 413.5 154 L 412.5 152 Z " /><path fill="rgb(0,0,0)" stroke="rgb(0,0,0)" stroke-width="1" opacity="0.792156862745098" d="M 96.5 154 L 95.5 156 L 96.5 154 Z " /><path fill="rgb(0,0,0)" stroke="rgb(0,0,0)" stroke-width="1" opacity="0.792156862745098" d="M 415.5 154 L 416.5 156 L 415.5 154 Z " /><path fill="rgb(0,0,0)" stroke="rgb(0,0,0)" stroke-width="1" opacity="0.792156862745098" d="M 93.5 156 L 92.5 158 L 93.5 156 Z " /><path fill="rgb(0,0,0)" stroke="rgb(0,0,0)" stroke-width="1" opacity="0.792156862745098" d="M 418.5 156 L 419.5 158 L 418.5 156 Z " /><path fill="rgb(0,0,0)" stroke="rgb(0,0,0)" stroke-width="1" opacity="0.792156862745098" d="M 303.5 159 L 306 160.5 L 304.5 160 L 303.5 159 Z " /><path fill="rgb(0,0,0)" stroke="rgb(0,0,0)" stroke-width="1" opacity="0.792156862745098" d="M 86.5 161 L 85.5 163 L 86.5 161 Z " /><path fill="rgb(0,0,0)" stroke="rgb(0,0,0)" stroke-width="1" opacity="0.792156862745098" d="M 425.5 161 L 426.5 163 L 425.5 161 Z " /><path fill="rgb(0,0,0)" stroke="rgb(0,0,0)" stroke-width="1" opacity="0.792156862745098" d="M 200.5 163 L 199.5 165 L 200.5 163 Z " /><path fill="rgb(0,0,0)" stroke="rgb(0,0,0)" stroke-width="1" opacity="0.792156862745098" d="M 311.5 163 L 312.5 165 L 311.5 163 Z " /><path fill="rgb(0,0,0)" stroke="rgb(0,0,0)" stroke-width="1" opacity="0.792156862745098" d="M 82.5 164 L 81.5 166 L 82.5 164 Z " /><path fill="rgb(0,0,0)" stroke="rgb(0,0,0)" stroke-width="1" opacity="0.792156862745098" d="M 429.5 164 L 431.5 167 L 429.5 164 Z " /><path fill="rgb(0,0,0)" stroke="rgb(0,0,0)" stroke-width="1" opacity="0.792156862745098" d="M 197.5 165 L 196.5 167 L 197.5 165 Z " /><path fill="rgb(0,0,0)" stroke="rgb(0,0,0)" stroke-width="1" opacity="0.792156862745098" d="M 78.5 167 L 76.5 170 L 78.5 167 Z " /><path fill="rgb(0,0,0)" stroke="rgb(0,0,0)" stroke-width="1" opacity="0.792156862745098" d="M 194.5 167 L 193.5 169 L 194.5 167 Z " /><path fill="rgb(0,0,0)" stroke="rgb(0,0,0)" stroke-width="1" opacity="0.792156862745098" d="M 317.5 167 L 318.5 169 L 317.5 167 Z " /><path fill="rgb(0,0,0)" stroke="rgb(0,0,0)" stroke-width="1" opacity="0.792156862745098" d="M 433.5 167 L 435.5 170 L 433.5 167 Z " /><path fill="rgb(0,0,0)" stroke="rgb(0,0,0)" stroke-width="1" opacity="0.792156862745098" d="M 191.5 169 L 189.5 172 L 191.5 169 Z " /><path fill="rgb(0,0,0)" stroke="rgb(0,0,0)" stroke-width="1" opacity="0.792156862745098" d="M 320.5 169 L 322.5 172 L 320.5 169 Z " /><path fill="rgb(0,0,0)" stroke="rgb(0,0,0)" stroke-width="1" opacity="0.792156862745098" d="M 73.5 171 L 72.5 173 L 73.5 171 Z " /><path fill="rgb(0,0,0)" stroke="rgb(0,0,0)" stroke-width="1" opacity="0.792156862745098" d="M 438.5 171 L 440.5 174 L 438.5 171 Z " /><path fill="rgb(0,0,0)" stroke="rgb(0,0,0)" stroke-width="1" opacity="0.792156862745098" d="M 324.5 172 L 330.5 179 L 324.5 172 Z " /><path fill="rgb(0,0,0)" stroke="rgb(0,0,0)" stroke-width="1" opacity="0.792156862745098" d="M 186.5 173 L 181.5 179 L 186.5 173 Z " /><path fill="rgb(0,0,0)" stroke="rgb(0,0,0)" stroke-width="1" opacity="0.792156862745098" d="M 68.5 175 L 65.5 179 L 68.5 175 Z " /><path fill="rgb(0,0,0)" stroke="rgb(0,0,0)" stroke-width="1" opacity="0.792156862745098" d="M 443.5 175 L 447.5 180 L 443.5 175 Z " /><path fill="rgb(0,0,0)" stroke="rgb(0,0,0)" stroke-width="1" opacity="0.792156862745098" d="M 61.5 181 L 57.5 186 L 61.5 181 Z " /><path fill="rgb(0,0,0)" stroke="rgb(0,0,0)" stroke-width="1" opacity="0.792156862745098" d="M 178.5 181 L 173.5 187 L 178.5 181 Z " /><path fill="rgb(0,0,0)" stroke="rgb(0,0,0)" stroke-width="1" opacity="0.792156862745098" d="M 333.5 181 L 339.5 188 L 333.5 181 Z " /><path fill="rgb(0,0,0)" stroke="rgb(0,0,0)" stroke-width="1" opacity="0.792156862745098" d="M 451.5 182 L 455.5 187 L 451.5 182 Z " /><path fill="rgb(0,0,0)" stroke="rgb(0,0,0)" stroke-width="1" opacity="0.792156862745098" d="M 171.5 189 L 169.5 192 L 171.5 189 Z " /><path fill="rgb(0,0,0)" stroke="rgb(0,0,0)" stroke-width="1" opacity="0.792156862745098" d="M 340.5 189 L 342.5 192 L 340.5 189 Z " /><path fill="rgb(0,0,0)" stroke="rgb(0,0,0)" stroke-width="1" opacity="0.792156862745098" d="M 49.5 192 L 37.5 205 L 49.5 192 Z " /><path fill="rgb(0,0,0)" stroke="rgb(0,0,0)" stroke-width="1" opacity="0.792156862745098" d="M 168.5 193 L 167.5 195 L 168.5 193 Z " /><path fill="rgb(0,0,0)" stroke="rgb(0,0,0)" stroke-width="1" opacity="0.792156862745098" d="M 343.5 193 L 344.5 195 L 343.5 193 Z " /><path fill="rgb(0,0,0)" stroke="rgb(0,0,0)" stroke-width="1" opacity="0.792156862745098" d="M 463.5 193 L 473.5 204 L 463.5 193 Z " /><path fill="rgb(0,0,0)" stroke="rgb(0,0,0)" stroke-width="1" opacity="0.792156862745098" d="M 166.5 196 L 165.5 198 L 166.5 196 Z " /><path fill="rgb(0,0,0)" stroke="rgb(0,0,0)" stroke-width="1" opacity="0.792156862745098" d="M 248.5 198 L 252 198.5 L 248.5 199 L 248.5 198 Z " /><path fill="rgb(0,0,0)" stroke="rgb(0,0,0)" stroke-width="1" opacity="0.792156862745098" d="M 260.5 198 L 265 198.5 L 260.5 199 L 260.5 198 Z " /><path fill="rgb(0,0,0)" stroke="rgb(0,0,0)" stroke-width="1" opacity="0.792156862745098" d="M 164.5 199 L 163.5 201 L 164.5 199 Z " /><path fill="rgb(0,0,0)" stroke="rgb(0,0,0)" stroke-width="1" opacity="0.792156862745098" d="M 267.5 199 L 270 199.5 L 267.5 200 L 267.5 199 Z " /><path fill="rgb(0,0,0)" stroke="rgb(0,0,0)" stroke-width="1" opacity="0.792156862745098" d="M 347.5 199 L 348.5 201 L 347.5 199 Z " /><path fill="rgb(0,0,0)" stroke="rgb(0,0,0)" stroke-width="1" opacity="0.792156862745098" d="M 231.5 203 L 230.5 205 L 231.5 203 Z " /><path fill="rgb(0,0,0)" stroke="rgb(0,0,0)" stroke-width="1" opacity="0.792156862745098" d="M 224.5 207 L 223.5 209 L 224.5 207 Z " /><path fill="rgb(0,0,0)" stroke="rgb(0,0,0)" stroke-width="1" opacity="0.792156862745098" d="M 290.5 209 L 291.5 211 L 290.5 209 Z " /><path fill="rgb(0,0,0)" stroke="rgb(0,0,0)" stroke-width="1" opacity="0.792156862745098" d="M 220.5 210 L 217.5 214 L 220.5 210 Z " /><path fill="rgb(0,0,0)" stroke="rgb(0,0,0)" stroke-width="1" opacity="0.792156862745098" d="M 480.5 211 L 485.5 217 L 480.5 211 Z " /><path fill="rgb(0,0,0)" stroke="rgb(0,0,0)" stroke-width="1" opacity="0.792156862745098" d="M 294.5 212 L 299.5 218 L 294.5 212 Z " /><path fill="rgb(0,0,0)" stroke="rgb(0,0,0)" stroke-width="1" opacity="0.792156862745098" d="M 29.5 213 L 25.5 218 L 29.5 213 Z " /><path fill="rgb(0,0,0)" stroke="rgb(0,0,0)" stroke-width="1" opacity="0.792156862745098" d="M 213.5 217 L 210.5 221 L 213.5 217 Z " /><path fill="rgb(0,0,0)" stroke="rgb(0,0,0)" stroke-width="1" opacity="0.792156862745098" d="M 23.5 220 L 19.5 225 L 23.5 220 Z " /><path fill="rgb(0,0,0)" stroke="rgb(0,0,0)" stroke-width="1" opacity="0.792156862745098" d="M 301.5 220 L 303.5 223 L 301.5 220 Z " /><path fill="rgb(0,0,0)" stroke="rgb(0,0,0)" stroke-width="1" opacity="0.792156862745098" d="M 488.5 220 L 491.5 224 L 488.5 220 Z " /><path fill="rgb(0,0,0)" stroke="rgb(0,0,0)" stroke-width="1" opacity="0.792156862745098" d="M 208.5 223 L 207.5 225 L 208.5 223 Z " /><path fill="rgb(0,0,0)" stroke="rgb(0,0,0)" stroke-width="1" opacity="0.792156862745098" d="M 304.5 224 L 305.5 226 L 304.5 224 Z " /><path fill="rgb(0,0,0)" stroke="rgb(0,0,0)" stroke-width="1" opacity="0.792156862745098" d="M 494.5 227 L 496.5 230 L 494.5 227 Z " /><path fill="rgb(0,0,0)" stroke="rgb(0,0,0)" stroke-width="1" opacity="0.792156862745098" d="M 16.5 228 L 14.5 231 L 16.5 228 Z " /><path fill="rgb(0,0,0)" stroke="rgb(0,0,0)" stroke-width="1" opacity="0.792156862745098" d="M 204.5 230 L 204 231.5 L 203.5 233 L 203 231.5 L 204.5 230 Z " /><path fill="rgb(0,0,0)" stroke="rgb(0,0,0)" stroke-width="1" opacity="0.792156862745098" d="M 498.5 232 L 500.5 235 L 498.5 232 Z " /><path fill="rgb(0,0,0)" stroke="rgb(0,0,0)" stroke-width="1" opacity="0.792156862745098" d="M 12.5 233 L 10.5 236 L 12.5 233 Z " /><path fill="rgb(0,0,0)" stroke="rgb(0,0,0)" stroke-width="1" opacity="0.792156862745098" d="M 361.5 233 L 362 235.5 L 361 235.5 L 361.5 233 Z " /><path fill="rgb(0,0,0)" stroke="rgb(0,0,0)" stroke-width="1" opacity="0.792156862745098" d="M 502.5 237 L 504.5 240 L 502.5 237 Z " /><path fill="rgb(0,0,0)" stroke="rgb(0,0,0)" stroke-width="1" opacity="0.792156862745098" d="M 8.5 238 L 7.5 240 L 8.5 238 Z " /><path fill="rgb(0,0,0)" stroke="rgb(0,0,0)" stroke-width="1" opacity="0.792156862745098" d="M 149.5 238 L 150 240.5 L 149 240.5 L 149.5 238 Z " /><path fill="rgb(0,0,0)" stroke="rgb(0,0,0)" stroke-width="1" opacity="0.792156862745098" d="M 362.5 238 L 363 240.5 L 362 240.5 L 362.5 238 Z " /><path fill="rgb(0,0,0)" stroke="rgb(0,0,0)" stroke-width="1" opacity="0.792156862745098" d="M 5.5 242 L 3.5 245 L 5.5 242 Z " /><path fill="rgb(0,0,0)" stroke="rgb(0,0,0)" stroke-width="1" opacity="0.792156862745098" d="M 312.5 242 L 313 244.5 L 312 244.5 L 312.5 242 Z " /><path fill="rgb(0,0,0)" stroke="rgb(0,0,0)" stroke-width="1" opacity="0.792156862745098" d="M 506.5 242 L 507.5 244 L 506.5 242 Z " /><path fill="rgb(0,0,0)" stroke="rgb(0,0,0)" stroke-width="1" opacity="0.792156862745098" d="M 148.5 246 L 149 265.5 L 148 265.5 L 148.5 246 Z " /><path fill="rgb(0,0,0)" stroke="rgb(0,0,0)" stroke-width="1" opacity="0.792156862745098" d="M 363.5 246 L 364 265.5 L 363 265.5 L 363.5 246 Z " /><path fill="rgb(0,0,0)" stroke="rgb(0,0,0)" stroke-width="1" opacity="0.792156862745098" d="M 313.5 247 L 314 251.5 L 313 251.5 L 313.5 247 Z " /><path fill="rgb(0,0,0)" stroke="rgb(0,0,0)" stroke-width="1" opacity="0.792156862745098" d="M 198.5 248 L 199 263.5 L 198 263.5 L 198.5 248 Z " /><path fill="rgb(0,0,0)" stroke="rgb(0,0,0)" stroke-width="1" opacity="0.792156862745098" d="M 0.5 251 L 1 254.5 L 0 254.5 L 0.5 251 Z " /><path fill="rgb(0,0,0)" stroke="rgb(0,0,0)" stroke-width="1" opacity="0.792156862745098" d="M 511.5 251 L 512 254.5 L 511 254.5 L 511.5 251 Z " /><path fill="rgb(0,0,0)" stroke="rgb(0,0,0)" stroke-width="1" opacity="0.792156862745098" d="M 0.5 257 L 1 260.5 L 0 260.5 L 0.5 257 Z " /><path fill="rgb(0,0,0)" stroke="rgb(0,0,0)" stroke-width="1" opacity="0.792156862745098" d="M 511.5 257 L 512 260.5 L 511 260.5 L 511.5 257 Z " /><path fill="rgb(0,0,0)" stroke="rgb(0,0,0)" stroke-width="1" opacity="0.792156862745098" d="M 313.5 260 L 314 263.5 L 313 263.5 L 313.5 260 Z " /><path fill="rgb(0,0,0)" stroke="rgb(0,0,0)" stroke-width="1" opacity="0.792156862745098" d="M 508.5 267 L 506.5 270 L 508.5 267 Z " /><path fill="rgb(0,0,0)" stroke="rgb(0,0,0)" stroke-width="1" opacity="0.792156862745098" d="M 4.5 268 L 5.5 270 L 4.5 268 Z " /><path fill="rgb(0,0,0)" stroke="rgb(0,0,0)" stroke-width="1" opacity="0.792156862745098" d="M 149.5 271 L 150 273.5 L 149 273.5 L 149.5 271 Z " /><path fill="rgb(0,0,0)" stroke="rgb(0,0,0)" stroke-width="1" opacity="0.792156862745098" d="M 362.5 271 L 363 273.5 L 362 273.5 L 362.5 271 Z " /><path fill="rgb(0,0,0)" stroke="rgb(0,0,0)" stroke-width="1" opacity="0.792156862745098" d="M 7.5 272 L 9.5 275 L 7.5 272 Z " /><path fill="rgb(0,0,0)" stroke="rgb(0,0,0)" stroke-width="1" opacity="0.792156862745098" d="M 504.5 272 L 503.5 274 L 504.5 272 Z " /><path fill="rgb(0,0,0)" stroke="rgb(0,0,0)" stroke-width="1" opacity="0.792156862745098" d="M 150.5 276 L 151 278.5 L 150 278.5 L 150.5 276 Z " /><path fill="rgb(0,0,0)" stroke="rgb(0,0,0)" stroke-width="1" opacity="0.792156862745098" d="M 501.5 276 L 499.5 279 L 501.5 276 Z " /><path fill="rgb(0,0,0)" stroke="rgb(0,0,0)" stroke-width="1" opacity="0.792156862745098" d="M 11.5 277 L 13.5 280 L 11.5 277 Z " /><path fill="rgb(0,0,0)" stroke="rgb(0,0,0)" stroke-width="1" opacity="0.792156862745098" d="M 308.5 280 L 307.5 282 L 308.5 280 Z " /><path fill="rgb(0,0,0)" stroke="rgb(0,0,0)" stroke-width="1" opacity="0.792156862745098" d="M 497.5 281 L 495.5 284 L 497.5 281 Z " /><path fill="rgb(0,0,0)" stroke="rgb(0,0,0)" stroke-width="1" opacity="0.792156862745098" d="M 15.5 282 L 17.5 285 L 15.5 282 Z " /><path fill="rgb(0,0,0)" stroke="rgb(0,0,0)" stroke-width="1" opacity="0.792156862745098" d="M 205.5 284 L 206.5 286 L 205.5 284 Z " /><path fill="rgb(0,0,0)" stroke="rgb(0,0,0)" stroke-width="1" opacity="0.792156862745098" d="M 207.5 287 L 208.5 289 L 207.5 287 Z " /><path fill="rgb(0,0,0)" stroke="rgb(0,0,0)" stroke-width="1" opacity="0.792156862745098" d="M 304.5 287 L 303.5 289 L 304.5 287 Z " /><path fill="rgb(0,0,0)" stroke="rgb(0,0,0)" stroke-width="1" opacity="0.792156862745098" d="M 492.5 287 L 488.5 292 L 492.5 287 Z " /><path fill="rgb(0,0,0)" stroke="rgb(0,0,0)" stroke-width="1" opacity="0.792156862745098" d="M 20.5 288 L 23.5 292 L 20.5 288 Z " /><path fill="rgb(0,0,0)" stroke="rgb(0,0,0)" stroke-width="1" opacity="0.792156862745098" d="M 209.5 290 L 210.5 292 L 209.5 290 Z " /><path fill="rgb(0,0,0)" stroke="rgb(0,0,0)" stroke-width="1" opacity="0.792156862745098" d="M 301.5 291 L 298.5 295 L 301.5 291 Z " /><path fill="rgb(0,0,0)" stroke="rgb(0,0,0)" stroke-width="1" opacity="0.792156862745098" d="M 486.5 294 L 482.5 299 L 486.5 294 Z " /><path fill="rgb(0,0,0)" stroke="rgb(0,0,0)" stroke-width="1" opacity="0.792156862745098" d="M 26.5 295 L 31.5 301 L 26.5 295 Z " /><path fill="rgb(0,0,0)" stroke="rgb(0,0,0)" stroke-width="1" opacity="0.792156862745098" d="M 214.5 296 L 215.5 298 L 214.5 296 Z " /><path fill="rgb(0,0,0)" stroke="rgb(0,0,0)" stroke-width="1" opacity="0.792156862745098" d="M 294.5 298 L 291.5 302 L 294.5 298 Z " /><path fill="rgb(0,0,0)" stroke="rgb(0,0,0)" stroke-width="1" opacity="0.792156862745098" d="M 220.5 301 L 221.5 303 L 220.5 301 Z " /><path fill="rgb(0,0,0)" stroke="rgb(0,0,0)" stroke-width="1" opacity="0.792156862745098" d="M 223.5 303 L 224.5 305 L 223.5 303 Z " /><path fill="rgb(0,0,0)" stroke="rgb(0,0,0)" stroke-width="1" opacity="0.792156862745098" d="M 288.5 303 L 287.5 305 L 288.5 303 Z " /><path fill="rgb(0,0,0)" stroke="rgb(0,0,0)" stroke-width="1" opacity="0.792156862745098" d="M 281.5 307 L 280.5 309 L 281.5 307 Z " /><path fill="rgb(0,0,0)" stroke="rgb(0,0,0)" stroke-width="1" opacity="0.792156862745098" d="M 474.5 307 L 462.5 320 L 474.5 307 Z " /><path fill="rgb(0,0,0)" stroke="rgb(0,0,0)" stroke-width="1" opacity="0.792156862745098" d="M 38.5 308 L 48.5 319 L 38.5 308 Z " /><path fill="rgb(0,0,0)" stroke="rgb(0,0,0)" stroke-width="1" opacity="0.792156862745098" d="M 163.5 311 L 164.5 313 L 163.5 311 Z " /><path fill="rgb(0,0,0)" stroke="rgb(0,0,0)" stroke-width="1" opacity="0.792156862745098" d="M 249.5 313 L 263 313.5 L 249.5 314 L 249.5 313 Z " /><path fill="rgb(0,0,0)" stroke="rgb(0,0,0)" stroke-width="1" opacity="0.792156862745098" d="M 346.5 314 L 345.5 316 L 346.5 314 Z " /><path fill="rgb(0,0,0)" stroke="rgb(0,0,0)" stroke-width="1" opacity="0.792156862745098" d="M 167.5 317 L 168.5 319 L 167.5 317 Z " /><path fill="rgb(0,0,0)" stroke="rgb(0,0,0)" stroke-width="1" opacity="0.792156862745098" d="M 344.5 317 L 343.5 319 L 344.5 317 Z " /><path fill="rgb(0,0,0)" stroke="rgb(0,0,0)" stroke-width="1" opacity="0.792156862745098" d="M 169.5 320 L 171.5 323 L 169.5 320 Z " /><path fill="rgb(0,0,0)" stroke="rgb(0,0,0)" stroke-width="1" opacity="0.792156862745098" d="M 341.5 321 L 339.5 324 L 341.5 321 Z " /><path fill="rgb(0,0,0)" stroke="rgb(0,0,0)" stroke-width="1" opacity="0.792156862745098" d="M 172.5 324 L 178.5 331 L 172.5 324 Z " /><path fill="rgb(0,0,0)" stroke="rgb(0,0,0)" stroke-width="1" opacity="0.792156862745098" d="M 56.5 325 L 60.5 330 L 56.5 325 Z " /><path fill="rgb(0,0,0)" stroke="rgb(0,0,0)" stroke-width="1" opacity="0.792156862745098" d="M 337.5 326 L 326.5 338 L 337.5 326 Z " /><path fill="rgb(0,0,0)" stroke="rgb(0,0,0)" stroke-width="1" opacity="0.792156862745098" d="M 454.5 326 L 450.5 331 L 454.5 326 Z " /><path fill="rgb(0,0,0)" stroke="rgb(0,0,0)" stroke-width="1" opacity="0.792156862745098" d="M 64.5 332 L 68.5 337 L 64.5 332 Z " /><path fill="rgb(0,0,0)" stroke="rgb(0,0,0)" stroke-width="1" opacity="0.792156862745098" d="M 181.5 333 L 187.5 340 L 181.5 333 Z " /><path fill="rgb(0,0,0)" stroke="rgb(0,0,0)" stroke-width="1" opacity="0.792156862745098" d="M 446.5 333 L 443.5 337 L 446.5 333 Z " /><path fill="rgb(0,0,0)" stroke="rgb(0,0,0)" stroke-width="1" opacity="0.792156862745098" d="M 71.5 338 L 73.5 341 L 71.5 338 Z " /><path fill="rgb(0,0,0)" stroke="rgb(0,0,0)" stroke-width="1" opacity="0.792156862745098" d="M 323.5 339 L 321.5 342 L 323.5 339 Z " /><path fill="rgb(0,0,0)" stroke="rgb(0,0,0)" stroke-width="1" opacity="0.792156862745098" d="M 439.5 339 L 438.5 341 L 439.5 339 Z " /><path fill="rgb(0,0,0)" stroke="rgb(0,0,0)" stroke-width="1" opacity="0.792156862745098" d="M 189.5 340 L 191.5 343 L 189.5 340 Z " /><path fill="rgb(0,0,0)" stroke="rgb(0,0,0)" stroke-width="1" opacity="0.792156862745098" d="M 76.5 342 L 78.5 345 L 76.5 342 Z " /><path fill="rgb(0,0,0)" stroke="rgb(0,0,0)" stroke-width="1" opacity="0.792156862745098" d="M 435.5 342 L 433.5 345 L 435.5 342 Z " /><path fill="rgb(0,0,0)" stroke="rgb(0,0,0)" stroke-width="1" opacity="0.792156862745098" d="M 193.5 343 L 194.5 345 L 193.5 343 Z " /><path fill="rgb(0,0,0)" stroke="rgb(0,0,0)" stroke-width="1" opacity="0.792156862745098" d="M 318.5 343 L 317.5 345 L 318.5 343 Z " /><path fill="rgb(0,0,0)" stroke="rgb(0,0,0)" stroke-width="1" opacity="0.792156862745098" d="M 80.5 345 L 82.5 348 L 80.5 345 Z " /><path fill="rgb(0,0,0)" stroke="rgb(0,0,0)" stroke-width="1" opacity="0.792156862745098" d="M 315.5 345 L 314.5 347 L 315.5 345 Z " /><path fill="rgb(0,0,0)" stroke="rgb(0,0,0)" stroke-width="1" opacity="0.792156862745098" d="M 430.5 346 L 429.5 348 L 430.5 346 Z " /><path fill="rgb(0,0,0)" stroke="rgb(0,0,0)" stroke-width="1" opacity="0.792156862745098" d="M 199.5 347 L 200.5 349 L 199.5 347 Z " /><path fill="rgb(0,0,0)" stroke="rgb(0,0,0)" stroke-width="1" opacity="0.792156862745098" d="M 85.5 349 L 86.5 351 L 85.5 349 Z " /><path fill="rgb(0,0,0)" stroke="rgb(0,0,0)" stroke-width="1" opacity="0.792156862745098" d="M 426.5 349 L 425.5 351 L 426.5 349 Z " /><path fill="rgb(0,0,0)" stroke="rgb(0,0,0)" stroke-width="1" opacity="0.792156862745098" d="M 206.5 351 L 209 352.5 L 207.5 353 L 206.5 351 Z " /><path fill="rgb(0,0,0)" stroke="rgb(0,0,0)" stroke-width="1" opacity="0.792156862745098" d="M 92.5 354 L 93.5 356 L 92.5 354 Z " /><path fill="rgb(0,0,0)" stroke="rgb(0,0,0)" stroke-width="1" opacity="0.792156862745098" d="M 419.5 354 L 418.5 356 L 419.5 354 Z " /><path fill="rgb(0,0,0)" stroke="rgb(0,0,0)" stroke-width="1" opacity="0.792156862745098" d="M 95.5 356 L 96.5 358 L 95.5 356 Z " /><path fill="rgb(0,0,0)" stroke="rgb(0,0,0)" stroke-width="1" opacity="0.792156862745098" d="M 416.5 356 L 415.5 358 L 416.5 356 Z " /><path fill="rgb(0,0,0)" stroke="rgb(0,0,0)" stroke-width="1" opacity="0.792156862745098" d="M 98.5 358 L 99.5 360 L 98.5 358 Z " /><path fill="rgb(0,0,0)" stroke="rgb(0,0,0)" stroke-width="1" opacity="0.792156862745098" d="M 413.5 358 L 412.5 360 L 413.5 358 Z " /><path fill="rgb(0,0,0)" stroke="rgb(0,0,0)" stroke-width="1" opacity="0.792156862745098" d="M 101.5 360 L 102.5 362 L 101.5 360 Z " /><path fill="rgb(0,0,0)" stroke="rgb(0,0,0)" stroke-width="1" opacity="0.792156862745098" d="M 233.5 361 L 236 361.5 L 233.5 362 L 233.5 361 Z " /><path fill="rgb(0,0,0)" stroke="rgb(0,0,0)" stroke-width="1" opacity="0.792156862745098" d="M 104.5 362 L 105.5 364 L 104.5 362 Z " /><path fill="rgb(0,0,0)" stroke="rgb(0,0,0)" stroke-width="1" opacity="0.792156862745098" d="M 238.5 362 L 242 362.5 L 238.5 363 L 238.5 362 Z " /><path fill="rgb(0,0,0)" stroke="rgb(0,0,0)" stroke-width="1" opacity="0.792156862745098" d="M 271.5 362 L 274 362.5 L 271.5 363 L 271.5 362 Z " /><path fill="rgb(0,0,0)" stroke="rgb(0,0,0)" stroke-width="1" opacity="0.792156862745098" d="M 407.5 362 L 406.5 364 L 407.5 362 Z " /><path fill="rgb(0,0,0)" stroke="rgb(0,0,0)" stroke-width="1" opacity="0.792156862745098" d="M 246.5 363 L 266 363.5 L 246.5 364 L 246.5 363 Z " /><path fill="rgb(0,0,0)" stroke="rgb(0,0,0)" stroke-width="1" opacity="0.792156862745098" d="M 109.5 365 L 110.5 367 L 109.5 365 Z " /><path fill="rgb(0,0,0)" stroke="rgb(0,0,0)" stroke-width="1" opacity="0.792156862745098" d="M 402.5 365 L 401.5 367 L 402.5 365 Z " /><path fill="rgb(0,0,0)" stroke="rgb(0,0,0)" stroke-width="1" opacity="0.792156862745098" d="M 114.5 368 L 115.5 370 L 114.5 368 Z " /><path fill="rgb(0,0,0)" stroke="rgb(0,0,0)" stroke-width="1" opacity="0.792156862745098" d="M 397.5 368 L 396.5 370 L 397.5 368 Z " /><path fill="rgb(0,0,0)" stroke="rgb(0,0,0)" stroke-width="1" opacity="0.792156862745098" d="M 121.5 372 L 122.5 374 L 121.5 372 Z " /><path fill="rgb(0,0,0)" stroke="rgb(0,0,0)" stroke-width="1" opacity="0.792156862745098" d="M 390.5 372 L 389.5 374 L 390.5 372 Z " /><path fill="rgb(0,0,0)" stroke="rgb(0,0,0)" stroke-width="1" opacity="0.792156862745098" d="M 204.5 403 L 207 403.5 L 204.5 404 L 204.5 403 Z " /><path fill="rgb(0,0,0)" stroke="rgb(0,0,0)" stroke-width="1" opacity="0.792156862745098" d="M 305.5 403 L 308 403.5 L 305.5 404 L 305.5 403 Z " /><path fill="rgb(0,0,0)" stroke="rgb(0,0,0)" stroke-width="1" opacity="0.792156862745098" d="M 210.5 404 L 213 404.5 L 210.5 405 L 210.5 404 Z " /><path fill="rgb(0,0,0)" stroke="rgb(0,0,0)" stroke-width="1" opacity="0.792156862745098" d="M 299.5 404 L 302 404.5 L 299.5 405 L 299.5 404 Z " /><path fill="rgb(0,0,0)" stroke="rgb(0,0,0)" stroke-width="1" opacity="0.792156862745098" d="M 222.5 406 L 227 406.5 L 222.5 407 L 222.5 406 Z " /><path fill="rgb(0,0,0)" stroke="rgb(0,0,0)" stroke-width="1" opacity="0.792156862745098" d="M 285.5 406 L 290 406.5 L 285.5 407 L 285.5 406 Z " /><path fill="rgb(0,0,0)" stroke="rgb(0,0,0)" stroke-width="1" opacity="0.792156862745098" d="M 232.5 407 L 237 407.5 L 232.5 408 L 232.5 407 Z " /><path fill="rgb(0,0,0)" stroke="rgb(0,0,0)" stroke-width="1" opacity="0.792156862745098" d="M 275.5 407 L 280 407.5 L 275.5 408 L 275.5 407 Z " /><path fill="rgb(0,0,0)" stroke="rgb(0,0,0)" stroke-width="1" opacity="0.792156862745098" d="M 250.5 408 L 262 408.5 L 250.5 409 L 250.5 408 Z " /><path fill="rgb(0,0,0)" stroke="rgb(0,0,0)" stroke-width="1" opacity="1" d="M 237.5 104 L 274.5 104 L 275.5 105 L 293.5 106 L 330.5 114 L 361.5 125 Q 395.5 139.5 423.5 160 Q 454.4 182.6 480 210.5 L 509 245.5 L 512 256.5 L 509 266.5 L 495 284.5 L 455.5 326 Q 413.8 365.3 356.5 389 L 330.5 398 L 293.5 406 L 275.5 407 L 274.5 408 L 237.5 408 L 236.5 407 L 218.5 406 L 212.5 404 L 201.5 403 L 181.5 398 Q 149.9 388.6 123.5 374 Q 71 344.5 32 301.5 L 3 266.5 L 0 255.5 L 3 245.5 L 17 227.5 L 56.5 186 Q 93.1 151.6 141.5 129 L 181.5 114 L 201.5 109 L 212.5 108 L 218.5 106 L 236.5 105 L 237.5 104 Z M 247 148 L 226 152 L 215 156 Q 199 163 187 173 Q 173 185 163 201 L 152 226 L 148 247 L 148 266 L 152 287 Q 159 309 172 325 Q 186 342 208 353 L 226 360 L 247 364 L 266 364 L 287 360 Q 310 352 327 338 Q 340 326 350 310 L 360 287 L 364 266 L 364 247 L 360 226 Q 353 203 340 188 Q 323 166 296 155 L 274 149 L 247 148 Z " /><path fill="rgb(0,0,0)" stroke="rgb(0,0,0)" stroke-width="1" opacity="1" d="M 252.5 198 Q 267.1 197.9 277.5 202 Q 291.8 208.2 301 219.5 Q 314.1 232.9 314 259.5 L 309 279.5 Q 303.8 290.3 295.5 298 L 279.5 309 L 270.5 312 L 266.5 313 L 245.5 313 Q 223 308 211 292.5 Q 203.5 283.5 200 270.5 L 199 266.5 L 199 245.5 Q 203.7 225.7 216.5 214 L 232.5 203 L 252.5 198 Z " /></svg>