<svg width="512" height="512" version="1.1" xmlns="http://www.w3.org/2000/svg" desc="Created with imagetracer.js version 1.2.6" ><path fill="rgb(0,0,0)" stroke="rgb(0,0,0)" stroke-width="1" opacity="0.8823529411764706" d="M 455.5 66 L 454.5 68 L 455.5 66 Z " /><path fill="rgb(0,0,0)" stroke="rgb(0,0,0)" stroke-width="1" opacity="0.8823529411764706" d="M 472.5 66 L 473.5 68 L 472.5 66 Z " /><path fill="rgb(0,0,0)" stroke="rgb(0,0,0)" stroke-width="1" opacity="0.8823529411764706" d="M 476.5 89 L 475.5 91 L 476.5 89 Z " /><path fill="rgb(0,0,0)" stroke="rgb(0,0,0)" stroke-width="1" opacity="0.8823529411764706" d="M 243.5 96 L 253 96.5 L 243.5 97 L 243.5 96 Z " /><path fill="rgb(0,0,0)" stroke="rgb(0,0,0)" stroke-width="1" opacity="0.8823529411764706" d="M 263.5 96 L 272 96.5 L 263.5 97 L 263.5 96 Z " /><path fill="rgb(0,0,0)" stroke="rgb(0,0,0)" stroke-width="1" opacity="0.8823529411764706" d="M 231.5 97 L 234 97.5 L 231.5 98 L 231.5 97 Z " /><path fill="rgb(0,0,0)" stroke="rgb(0,0,0)" stroke-width="1" opacity="0.8823529411764706" d="M 281.5 97 L 284 97.5 L 281.5 98 L 281.5 97 Z " /><path fill="rgb(0,0,0)" stroke="rgb(0,0,0)" stroke-width="1" opacity="0.8823529411764706" d="M 290.5 98 L 293 98.5 L 290.5 99 L 290.5 98 Z " /><path fill="rgb(0,0,0)" stroke="rgb(0,0,0)" stroke-width="1" opacity="0.8823529411764706" d="M 357.5 116 L 359 117.5 L 304.5 172 L 358 117.5 L 357.5 116 Z " /><path fill="rgb(0,0,0)" stroke="rgb(0,0,0)" stroke-width="1" opacity="0.8823529411764706" d="M 112.5 144 L 111.5 146 L 112.5 144 Z " /><path fill="rgb(0,0,0)" stroke="rgb(0,0,0)" stroke-width="1" opacity="0.8823529411764706" d="M 108.5 147 L 107.5 149 L 108.5 147 Z " /><path fill="rgb(0,0,0)" stroke="rgb(0,0,0)" stroke-width="1" opacity="0.8823529411764706" d="M 104.5 150 L 103.5 152 L 104.5 150 Z " /><path fill="rgb(0,0,0)" stroke="rgb(0,0,0)" stroke-width="1" opacity="0.8823529411764706" d="M 415.5 151 L 416.5 153 L 415.5 151 Z " /><path fill="rgb(0,0,0)" stroke="rgb(0,0,0)" stroke-width="1" opacity="0.8823529411764706" d="M 99.5 154 L 98.5 156 L 99.5 154 Z " /><path fill="rgb(0,0,0)" stroke="rgb(0,0,0)" stroke-width="1" opacity="0.8823529411764706" d="M 419.5 154 L 421.5 157 L 419.5 154 Z " /><path fill="rgb(0,0,0)" stroke="rgb(0,0,0)" stroke-width="1" opacity="0.8823529411764706" d="M 94.5 158 L 92.5 161 L 94.5 158 Z " /><path fill="rgb(0,0,0)" stroke="rgb(0,0,0)" stroke-width="1" opacity="0.8823529411764706" d="M 266.5 160 L 269 160.5 L 266.5 161 L 266.5 160 Z " /><path fill="rgb(0,0,0)" stroke="rgb(0,0,0)" stroke-width="1" opacity="0.8823529411764706" d="M 426.5 160 L 430.5 165 L 426.5 160 Z " /><path fill="rgb(0,0,0)" stroke="rgb(0,0,0)" stroke-width="1" opacity="0.8823529411764706" d="M 87.5 164 L 83.5 169 L 87.5 164 Z " /><path fill="rgb(0,0,0)" stroke="rgb(0,0,0)" stroke-width="1" opacity="0.8823529411764706" d="M 200.5 177 L 199.5 179 L 200.5 177 Z " /><path fill="rgb(0,0,0)" stroke="rgb(0,0,0)" stroke-width="1" opacity="0.8823529411764706" d="M 196.5 180 L 195.5 182 L 196.5 180 Z " /><path fill="rgb(0,0,0)" stroke="rgb(0,0,0)" stroke-width="1" opacity="0.8823529411764706" d="M 446.5 180 L 451.5 186 L 446.5 180 Z " /><path fill="rgb(0,0,0)" stroke="rgb(0,0,0)" stroke-width="1" opacity="0.8823529411764706" d="M 190.5 185 L 185.5 191 L 190.5 185 Z " /><path fill="rgb(0,0,0)" stroke="rgb(0,0,0)" stroke-width="1" opacity="0.8823529411764706" d="M 62.5 189 L 57.5 195 L 62.5 189 Z " /><path fill="rgb(0,0,0)" stroke="rgb(0,0,0)" stroke-width="1" opacity="0.8823529411764706" d="M 455.5 190 L 457.5 193 L 455.5 190 Z " /><path fill="rgb(0,0,0)" stroke="rgb(0,0,0)" stroke-width="1" opacity="0.8823529411764706" d="M 249.5 192 L 254 192.5 L 249.5 193 L 249.5 192 Z " /><path fill="rgb(0,0,0)" stroke="rgb(0,0,0)" stroke-width="1" opacity="0.8823529411764706" d="M 258.5 192 L 263 192.5 L 258.5 193 L 258.5 192 Z " /><path fill="rgb(0,0,0)" stroke="rgb(0,0,0)" stroke-width="1" opacity="0.8823529411764706" d="M 181.5 195 L 180.5 197 L 181.5 195 Z " /><path fill="rgb(0,0,0)" stroke="rgb(0,0,0)" stroke-width="1" opacity="0.8823529411764706" d="M 278.5 196 L 279 197.5 L 196.5 279 L 196.5 278 L 278 197.5 L 278.5 196 Z " /><path fill="rgb(0,0,0)" stroke="rgb(0,0,0)" stroke-width="1" opacity="0.8823529411764706" d="M 460.5 196 L 461.5 198 L 460.5 196 Z " /><path fill="rgb(0,0,0)" stroke="rgb(0,0,0)" stroke-width="1" opacity="0.8823529411764706" d="M 53.5 199 L 51.5 202 L 53.5 199 Z " /><path fill="rgb(0,0,0)" stroke="rgb(0,0,0)" stroke-width="1" opacity="0.8823529411764706" d="M 48.5 205 L 46.5 208 L 48.5 205 Z " /><path fill="rgb(0,0,0)" stroke="rgb(0,0,0)" stroke-width="1" opacity="0.8823529411764706" d="M 214.5 207 L 207.5 215 L 214.5 207 Z " /><path fill="rgb(0,0,0)" stroke="rgb(0,0,0)" stroke-width="1" opacity="0.8823529411764706" d="M 44.5 210 L 42.5 213 L 44.5 210 Z " /><path fill="rgb(0,0,0)" stroke="rgb(0,0,0)" stroke-width="1" opacity="0.8823529411764706" d="M 40.5 215 L 39.5 217 L 40.5 215 Z " /><path fill="rgb(0,0,0)" stroke="rgb(0,0,0)" stroke-width="1" opacity="0.8823529411764706" d="M 37.5 219 L 36.5 221 L 37.5 219 Z " /><path fill="rgb(0,0,0)" stroke="rgb(0,0,0)" stroke-width="1" opacity="0.8823529411764706" d="M 32.5 226 L 31.5 228 L 32.5 226 Z " /><path fill="rgb(0,0,0)" stroke="rgb(0,0,0)" stroke-width="1" opacity="0.8823529411764706" d="M 30.5 229 L 29.5 231 L 30.5 229 Z " /><path fill="rgb(0,0,0)" stroke="rgb(0,0,0)" stroke-width="1" opacity="0.8823529411764706" d="M 351.5 242 L 352 244.5 L 351 244.5 L 351.5 242 Z " /><path fill="rgb(0,0,0)" stroke="rgb(0,0,0)" stroke-width="1" opacity="0.8823529411764706" d="M 192.5 249 L 193 253.5 L 192 253.5 L 192.5 249 Z " /><path fill="rgb(0,0,0)" stroke="rgb(0,0,0)" stroke-width="1" opacity="0.8823529411764706" d="M 319.5 250 L 320 253.5 L 319 253.5 L 319.5 250 Z " /><path fill="rgb(0,0,0)" stroke="rgb(0,0,0)" stroke-width="1" opacity="0.8823529411764706" d="M 319.5 258 L 320 262.5 L 319 262.5 L 319.5 258 Z " /><path fill="rgb(0,0,0)" stroke="rgb(0,0,0)" stroke-width="1" opacity="0.8823529411764706" d="M 192.5 259 L 193 262.5 L 192 262.5 L 192.5 259 Z " /><path fill="rgb(0,0,0)" stroke="rgb(0,0,0)" stroke-width="1" opacity="0.8823529411764706" d="M 351.5 265 L 352 267.5 L 351 267.5 L 351.5 265 Z " /><path fill="rgb(0,0,0)" stroke="rgb(0,0,0)" stroke-width="1" opacity="0.8823529411764706" d="M 160.5 266 L 161 268.5 L 160 268.5 L 160.5 266 Z " /><path fill="rgb(0,0,0)" stroke="rgb(0,0,0)" stroke-width="1" opacity="0.8823529411764706" d="M 488.5 272 L 487.5 274 L 488.5 272 Z " /><path fill="rgb(0,0,0)" stroke="rgb(0,0,0)" stroke-width="1" opacity="0.8823529411764706" d="M 25.5 275 L 26.5 277 L 25.5 275 Z " /><path fill="rgb(0,0,0)" stroke="rgb(0,0,0)" stroke-width="1" opacity="0.8823529411764706" d="M 27.5 278 L 28.5 280 L 27.5 278 Z " /><path fill="rgb(0,0,0)" stroke="rgb(0,0,0)" stroke-width="1" opacity="0.8823529411764706" d="M 29.5 281 L 30.5 283 L 29.5 281 Z " /><path fill="rgb(0,0,0)" stroke="rgb(0,0,0)" stroke-width="1" opacity="0.8823529411764706" d="M 482.5 281 L 481.5 283 L 482.5 281 Z " /><path fill="rgb(0,0,0)" stroke="rgb(0,0,0)" stroke-width="1" opacity="0.8823529411764706" d="M 480.5 284 L 479.5 286 L 480.5 284 Z " /><path fill="rgb(0,0,0)" stroke="rgb(0,0,0)" stroke-width="1" opacity="0.8823529411764706" d="M 34.5 288 L 35.5 290 L 34.5 288 Z " /><path fill="rgb(0,0,0)" stroke="rgb(0,0,0)" stroke-width="1" opacity="0.8823529411764706" d="M 475.5 291 L 474.5 293 L 475.5 291 Z " /><path fill="rgb(0,0,0)" stroke="rgb(0,0,0)" stroke-width="1" opacity="0.8823529411764706" d="M 307.5 293 L 306.5 295 L 307.5 293 Z " /><path fill="rgb(0,0,0)" stroke="rgb(0,0,0)" stroke-width="1" opacity="0.8823529411764706" d="M 472.5 295 L 471.5 297 L 472.5 295 Z " /><path fill="rgb(0,0,0)" stroke="rgb(0,0,0)" stroke-width="1" opacity="0.8823529411764706" d="M 40.5 296 L 41.5 298 L 40.5 296 Z " /><path fill="rgb(0,0,0)" stroke="rgb(0,0,0)" stroke-width="1" opacity="0.8823529411764706" d="M 304.5 297 L 297.5 305 L 304.5 297 Z " /><path fill="rgb(0,0,0)" stroke="rgb(0,0,0)" stroke-width="1" opacity="0.8823529411764706" d="M 43.5 300 L 44.5 302 L 43.5 300 Z " /><path fill="rgb(0,0,0)" stroke="rgb(0,0,0)" stroke-width="1" opacity="0.8823529411764706" d="M 468.5 300 L 467.5 302 L 468.5 300 Z " /><path fill="rgb(0,0,0)" stroke="rgb(0,0,0)" stroke-width="1" opacity="0.8823529411764706" d="M 171.5 304 L 111.5 365 L 171.5 304 Z " /><path fill="rgb(0,0,0)" stroke="rgb(0,0,0)" stroke-width="1" opacity="0.8823529411764706" d="M 465.5 304 L 463.5 307 L 465.5 304 Z " /><path fill="rgb(0,0,0)" stroke="rgb(0,0,0)" stroke-width="1" opacity="0.8823529411764706" d="M 47.5 305 L 49.5 308 L 47.5 305 Z " /><path fill="rgb(0,0,0)" stroke="rgb(0,0,0)" stroke-width="1" opacity="0.8823529411764706" d="M 294.5 306 L 293.5 308 L 294.5 306 Z " /><path fill="rgb(0,0,0)" stroke="rgb(0,0,0)" stroke-width="1" opacity="0.8823529411764706" d="M 460.5 310 L 458.5 313 L 460.5 310 Z " /><path fill="rgb(0,0,0)" stroke="rgb(0,0,0)" stroke-width="1" opacity="0.8823529411764706" d="M 52.5 311 L 54.5 314 L 52.5 311 Z " /><path fill="rgb(0,0,0)" stroke="rgb(0,0,0)" stroke-width="1" opacity="0.8823529411764706" d="M 333.5 311 L 332.5 313 L 333.5 311 Z " /><path fill="rgb(0,0,0)" stroke="rgb(0,0,0)" stroke-width="1" opacity="0.8823529411764706" d="M 330.5 315 L 327.5 319 L 330.5 315 Z " /><path fill="rgb(0,0,0)" stroke="rgb(0,0,0)" stroke-width="1" opacity="0.8823529411764706" d="M 58.5 318 L 63.5 324 L 58.5 318 Z " /><path fill="rgb(0,0,0)" stroke="rgb(0,0,0)" stroke-width="1" opacity="0.8823529411764706" d="M 453.5 318 L 449.5 323 L 453.5 318 Z " /><path fill="rgb(0,0,0)" stroke="rgb(0,0,0)" stroke-width="1" opacity="0.8823529411764706" d="M 250.5 319 L 255 319.5 L 250.5 320 L 250.5 319 Z " /><path fill="rgb(0,0,0)" stroke="rgb(0,0,0)" stroke-width="1" opacity="0.8823529411764706" d="M 258.5 319 L 263 319.5 L 258.5 320 L 258.5 319 Z " /><path fill="rgb(0,0,0)" stroke="rgb(0,0,0)" stroke-width="1" opacity="0.8823529411764706" d="M 317.5 328 L 315.5 331 L 317.5 328 Z " /><path fill="rgb(0,0,0)" stroke="rgb(0,0,0)" stroke-width="1" opacity="0.8823529411764706" d="M 312.5 332 L 311.5 334 L 312.5 332 Z " /><path fill="rgb(0,0,0)" stroke="rgb(0,0,0)" stroke-width="1" opacity="0.8823529411764706" d="M 80.5 340 L 85.5 346 L 80.5 340 Z " /><path fill="rgb(0,0,0)" stroke="rgb(0,0,0)" stroke-width="1" opacity="0.8823529411764706" d="M 428.5 343 L 424.5 348 L 428.5 343 Z " /><path fill="rgb(0,0,0)" stroke="rgb(0,0,0)" stroke-width="1" opacity="0.8823529411764706" d="M 90.5 349 L 92.5 352 L 90.5 349 Z " /><path fill="rgb(0,0,0)" stroke="rgb(0,0,0)" stroke-width="1" opacity="0.8823529411764706" d="M 242.5 351 L 245 351.5 L 242.5 352 L 242.5 351 Z " /><path fill="rgb(0,0,0)" stroke="rgb(0,0,0)" stroke-width="1" opacity="0.8823529411764706" d="M 265.5 351 L 268 351.5 L 265.5 352 L 265.5 351 Z " /><path fill="rgb(0,0,0)" stroke="rgb(0,0,0)" stroke-width="1" opacity="0.8823529411764706" d="M 419.5 351 L 417.5 354 L 419.5 351 Z " /><path fill="rgb(0,0,0)" stroke="rgb(0,0,0)" stroke-width="1" opacity="0.8823529411764706" d="M 97.5 355 L 98.5 357 L 97.5 355 Z " /><path fill="rgb(0,0,0)" stroke="rgb(0,0,0)" stroke-width="1" opacity="0.8823529411764706" d="M 413.5 356 L 412.5 358 L 413.5 356 Z " /><path fill="rgb(0,0,0)" stroke="rgb(0,0,0)" stroke-width="1" opacity="0.8823529411764706" d="M 102.5 359 L 103.5 361 L 102.5 359 Z " /><path fill="rgb(0,0,0)" stroke="rgb(0,0,0)" stroke-width="1" opacity="0.8823529411764706" d="M 408.5 360 L 407.5 362 L 408.5 360 Z " /><path fill="rgb(0,0,0)" stroke="rgb(0,0,0)" stroke-width="1" opacity="0.8823529411764706" d="M 106.5 362 L 107.5 364 L 106.5 362 Z " /><path fill="rgb(0,0,0)" stroke="rgb(0,0,0)" stroke-width="1" opacity="0.8823529411764706" d="M 404.5 363 L 403.5 365 L 404.5 363 Z " /><path fill="rgb(0,0,0)" stroke="rgb(0,0,0)" stroke-width="1" opacity="0.8823529411764706" d="M 400.5 366 L 399.5 368 L 400.5 366 Z " /><path fill="rgb(0,0,0)" stroke="rgb(0,0,0)" stroke-width="1" opacity="0.8823529411764706" d="M 382.5 378 L 381.5 380 L 382.5 378 Z " /><path fill="rgb(0,0,0)" stroke="rgb(0,0,0)" stroke-width="1" opacity="0.8823529411764706" d="M 222.5 413 L 225 413.5 L 222.5 414 L 222.5 413 Z " /><path fill="rgb(0,0,0)" stroke="rgb(0,0,0)" stroke-width="1" opacity="0.8823529411764706" d="M 230.5 414 L 234 414.5 L 230.5 415 L 230.5 414 Z " /><path fill="rgb(0,0,0)" stroke="rgb(0,0,0)" stroke-width="1" opacity="0.8823529411764706" d="M 278.5 414 L 281 414.5 L 278.5 415 L 278.5 414 Z " /><path fill="rgb(0,0,0)" stroke="rgb(0,0,0)" stroke-width="1" opacity="0.8823529411764706" d="M 242.5 415 L 253 415.5 L 242.5 416 L 242.5 415 Z " /><path fill="rgb(0,0,0)" stroke="rgb(0,0,0)" stroke-width="1" opacity="0.8823529411764706" d="M 259.5 415 L 269 415.5 L 259.5 416 L 259.5 415 Z " /><path fill="rgb(0,0,0)" stroke="rgb(0,0,0)" stroke-width="1" opacity="0.8823529411764706" d="M 64.5 460 L 65 462.5 L 64 462.5 L 64.5 460 Z " /><path fill="rgb(0,0,0)" stroke="rgb(0,0,0)" stroke-width="1" opacity="0.8823529411764706" d="M 64.5 465 L 65 467.5 L 64 467.5 L 64.5 465 Z " /><path fill="rgb(0,0,0)" stroke="rgb(0,0,0)" stroke-width="1" opacity="0.8823529411764706" d="M 69.5 475 L 70.5 477 L 69.5 475 Z " /><path fill="rgb(0,0,0)" stroke="rgb(0,0,0)" stroke-width="1" opacity="0.8823529411764706" d="M 90.5 475 L 89.5 477 L 90.5 475 Z " /><path fill="rgb(0,0,0)" stroke="rgb(0,0,0)" stroke-width="1" opacity="0.8823529411764706" d="M 77.5 479 L 83 479.5 L 77.5 480 L 77.5 479 Z " /><path fill="rgb(0,0,0)" stroke="rgb(0,0,0)" stroke-width="1" opacity="0" d="M 0 0 L 512 0 L 512 512 L 0 512 L 0 0 Z M 460 64 L 454 67 L 67 454 L 64 460 Q 63 470 67 475 L 77 480 Q 87 481 92 476 L 169 399 Q 185 407 205 411 L 228 415 L 236 415 L 237 416 L 275 416 L 276 415 L 285 415 L 308 411 L 335 403 Q 390 382 430 344 Q 469 309 496 261 L 496 252 L 484 229 Q 468 202 448 181 Q 434 164 416 152 L 477 91 L 480 85 Q 482 74 477 70 Q 473 62 460 64 Z M 238 96 L 237 97 L 228 97 L 227 98 L 215 99 L 197 103 L 156 118 Q 114 138 83 168 Q 43 203 16 252 L 16 261 L 22 272 Q 40 300 63 325 Q 84 347 110 366 L 173 304 L 164 284 L 161 270 L 161 260 L 160 259 L 161 243 L 165 226 Q 173 205 186 191 Q 198 177 216 169 L 237 162 L 253 161 L 254 160 L 270 161 L 284 164 L 304 173 L 359 118 L 359 116 L 335 107 L 296 98 L 279 97 L 278 96 L 238 96 Z M 247 192 Q 229 195 218 204 Q 198 218 192 247 L 192 266 L 196 279 L 198 279 L 280 197 L 266 192 L 247 192 Z " /><path fill="rgb(0,0,0)" stroke="rgb(0,0,0)" stroke-width="1" opacity="0" d="M 345.5 222 L 351 241.5 L 352 260.5 L 348 281.5 L 339 302.5 Q 329.6 318.6 315.5 330 Q 303.5 340 287.5 346 L 268.5 351 L 250.5 352 L 249.5 351 L 236.5 350 L 222 345.5 L 247.5 320 L 265.5 320 L 282.5 315 Q 297.4 307.9 307 295.5 Q 314.2 286.7 318 274.5 L 320 265.5 L 320 247.5 L 345.5 222 Z " /><path fill="rgb(0,0,0)" stroke="rgb(0,0,0)" stroke-width="1" opacity="1" d="M 462.5 64 Q 471.9 64.1 476 69.5 Q 480 73.5 480 81.5 L 475 91.5 L 415 151.5 Q 432 164 446 179.5 Q 465 199.5 480 223.5 L 494 248.5 L 496 256.5 L 495 261.5 L 491 268.5 L 471 297.5 Q 452.1 322.1 429.5 343 Q 393.9 376.9 345.5 398 L 326.5 405 L 298.5 412 L 293.5 412 L 286.5 414 L 278.5 414 L 277.5 415 L 259.5 415 Q 258.3 417.2 253.5 416 L 252.5 415 L 225.5 414 L 203.5 410 L 185.5 405 L 168.5 398 L 91.5 475 Q 87.1 480.6 75.5 479 L 68 475 L 65 469.5 L 64 463.5 L 65 458.5 L 68 453.5 L 453.5 68 L 462.5 64 Z M 346 221 L 319 248 Q 318 253 320 255 Q 319 281 306 296 L 289 311 L 272 318 L 259 319 L 258 320 L 255 319 L 248 319 L 221 346 L 233 350 L 243 352 L 268 352 L 278 350 Q 300 344 316 331 Q 344 309 352 268 L 352 243 L 350 233 L 346 221 Z " /><path fill="rgb(0,0,0)" stroke="rgb(0,0,0)" stroke-width="1" opacity="1" d="M 253.5 96 L 280.5 97 L 281.5 98 L 289.5 98 L 312.5 102 L 349.5 113 L 358 117.5 L 302.5 172 L 291.5 166 L 274.5 161 Q 269.8 162.3 268.5 160 L 244.5 160 Q 206 166.5 185 190.5 Q 170.2 206.2 163 229.5 L 160 244.5 L 160 268.5 L 166 291.5 L 172 303.5 L 109.5 365 Q 84.8 346.7 64 324.5 L 33 286.5 L 18 263.5 L 16 255.5 L 17 250.5 L 24 238.5 L 41 214.5 Q 59.9 189.9 82.5 169 Q 118.1 135.1 166.5 114 L 203.5 102 L 225.5 98 L 252.5 97 L 253.5 96 Z " /><path fill="rgb(0,0,0)" stroke="rgb(0,0,0)" stroke-width="1" opacity="1" d="M 254.5 192 L 266.5 193 L 278 196 L 278 197.5 L 197.5 278 Q 194.9 278.8 196 275.5 L 193 266.5 L 192 254.5 L 193 253.5 L 193 244.5 L 195 236.5 L 201 223.5 Q 207.5 212.5 217.5 205 L 236.5 195 L 244.5 193 L 253.5 193 L 254.5 192 Z " /><path fill="rgb(0,0,0)" stroke="rgb(0,0,0)" stroke-width="1" opacity="0.34901960784313724" d="M 453.5 67 L 67.5 454 L 453.5 67 Z " /><path fill="rgb(0,0,0)" stroke="rgb(0,0,0)" stroke-width="1" opacity="0.34901960784313724" d="M 474.5 67 L 476.5 70 L 474.5 67 Z " /><path fill="rgb(0,0,0)" stroke="rgb(0,0,0)" stroke-width="1" opacity="0.34901960784313724" d="M 477.5 71 L 478.5 73 L 477.5 71 Z " /><path fill="rgb(0,0,0)" stroke="rgb(0,0,0)" stroke-width="1" opacity="0.34901960784313724" d="M 478.5 87 L 477.5 89 L 478.5 87 Z " /><path fill="rgb(0,0,0)" stroke="rgb(0,0,0)" stroke-width="1" opacity="0.34901960784313724" d="M 476.5 90 L 416.5 151 L 476.5 90 Z " /><path fill="rgb(0,0,0)" stroke="rgb(0,0,0)" stroke-width="1" opacity="0.34901960784313724" d="M 237.5 96 L 243 96.5 L 237.5 97 L 237.5 96 Z " /><path fill="rgb(0,0,0)" stroke="rgb(0,0,0)" stroke-width="1" opacity="0.34901960784313724" d="M 272.5 96 L 278 96.5 L 272.5 97 L 272.5 96 Z " /><path fill="rgb(0,0,0)" stroke="rgb(0,0,0)" stroke-width="1" opacity="0.34901960784313724" d="M 227.5 97 L 231 97.5 L 227.5 98 L 227.5 97 Z " /><path fill="rgb(0,0,0)" stroke="rgb(0,0,0)" stroke-width="1" opacity="0.34901960784313724" d="M 284.5 97 L 288 97.5 L 284.5 98 L 284.5 97 Z " /><path fill="rgb(0,0,0)" stroke="rgb(0,0,0)" stroke-width="1" opacity="0.34901960784313724" d="M 220.5 98 L 223 98.5 L 220.5 99 L 220.5 98 Z " /><path fill="rgb(0,0,0)" stroke="rgb(0,0,0)" stroke-width="1" opacity="0.34901960784313724" d="M 293.5 98 L 296 98.5 L 293.5 99 L 293.5 98 Z " /><path fill="rgb(0,0,0)" stroke="rgb(0,0,0)" stroke-width="1" opacity="0.34901960784313724" d="M 214.5 99 L 217 99.5 L 214.5 100 L 214.5 99 Z " /><path fill="rgb(0,0,0)" stroke="rgb(0,0,0)" stroke-width="1" opacity="0.34901960784313724" d="M 299.5 99 L 302 99.5 L 299.5 100 L 299.5 99 Z " /><path fill="rgb(0,0,0)" stroke="rgb(0,0,0)" stroke-width="1" opacity="0.34901960784313724" d="M 131.5 131 L 130.5 133 L 131.5 131 Z " /><path fill="rgb(0,0,0)" stroke="rgb(0,0,0)" stroke-width="1" opacity="0.34901960784313724" d="M 123.5 136 L 122.5 138 L 123.5 136 Z " /><path fill="rgb(0,0,0)" stroke="rgb(0,0,0)" stroke-width="1" opacity="0.34901960784313724" d="M 120.5 138 L 119.5 140 L 120.5 138 Z " /><path fill="rgb(0,0,0)" stroke="rgb(0,0,0)" stroke-width="1" opacity="0.34901960784313724" d="M 117.5 140 L 116.5 142 L 117.5 140 Z " /><path fill="rgb(0,0,0)" stroke="rgb(0,0,0)" stroke-width="1" opacity="0.34901960784313724" d="M 110.5 145 L 109.5 147 L 110.5 145 Z " /><path fill="rgb(0,0,0)" stroke="rgb(0,0,0)" stroke-width="1" opacity="0.34901960784313724" d="M 106.5 148 L 105.5 150 L 106.5 148 Z " /><path fill="rgb(0,0,0)" stroke="rgb(0,0,0)" stroke-width="1" opacity="0.34901960784313724" d="M 102.5 151 L 100.5 154 L 102.5 151 Z " /><path fill="rgb(0,0,0)" stroke="rgb(0,0,0)" stroke-width="1" opacity="0.34901960784313724" d="M 417.5 152 L 418.5 154 L 417.5 152 Z " /><path fill="rgb(0,0,0)" stroke="rgb(0,0,0)" stroke-width="1" opacity="0.34901960784313724" d="M 97.5 155 L 95.5 158 L 97.5 155 Z " /><path fill="rgb(0,0,0)" stroke="rgb(0,0,0)" stroke-width="1" opacity="0.34901960784313724" d="M 422.5 156 L 425.5 160 L 422.5 156 Z " /><path fill="rgb(0,0,0)" stroke="rgb(0,0,0)" stroke-width="1" opacity="0.34901960784313724" d="M 91.5 160 L 88.5 164 L 91.5 160 Z " /><path fill="rgb(0,0,0)" stroke="rgb(0,0,0)" stroke-width="1" opacity="0.34901960784313724" d="M 246.5 160 L 253 160.5 L 246.5 161 L 246.5 160 Z " /><path fill="rgb(0,0,0)" stroke="rgb(0,0,0)" stroke-width="1" opacity="0.34901960784313724" d="M 259.5 160 L 266 160.5 L 259.5 161 L 259.5 160 Z " /><path fill="rgb(0,0,0)" stroke="rgb(0,0,0)" stroke-width="1" opacity="0.34901960784313724" d="M 239.5 161 L 242 161.5 L 239.5 162 L 239.5 161 Z " /><path fill="rgb(0,0,0)" stroke="rgb(0,0,0)" stroke-width="1" opacity="0.34901960784313724" d="M 270.5 161 L 273 161.5 L 270.5 162 L 270.5 161 Z " /><path fill="rgb(0,0,0)" stroke="rgb(0,0,0)" stroke-width="1" opacity="0.34901960784313724" d="M 430.5 163 L 447.5 181 L 430.5 163 Z " /><path fill="rgb(0,0,0)" stroke="rgb(0,0,0)" stroke-width="1" opacity="0.34901960784313724" d="M 82.5 168 L 61.5 190 L 82.5 168 Z " /><path fill="rgb(0,0,0)" stroke="rgb(0,0,0)" stroke-width="1" opacity="0.34901960784313724" d="M 205.5 174 L 204.5 176 L 205.5 174 Z " /><path fill="rgb(0,0,0)" stroke="rgb(0,0,0)" stroke-width="1" opacity="0.34901960784313724" d="M 202.5 176 L 201.5 178 L 202.5 176 Z " /><path fill="rgb(0,0,0)" stroke="rgb(0,0,0)" stroke-width="1" opacity="0.34901960784313724" d="M 194.5 182 L 191.5 186 L 194.5 182 Z " /><path fill="rgb(0,0,0)" stroke="rgb(0,0,0)" stroke-width="1" opacity="0.34901960784313724" d="M 452.5 186 L 455.5 190 L 452.5 186 Z " /><path fill="rgb(0,0,0)" stroke="rgb(0,0,0)" stroke-width="1" opacity="0.34901960784313724" d="M 185.5 191 L 182.5 195 L 185.5 191 Z " /><path fill="rgb(0,0,0)" stroke="rgb(0,0,0)" stroke-width="1" opacity="0.34901960784313724" d="M 246.5 192 L 249 192.5 L 246.5 193 L 246.5 192 Z " /><path fill="rgb(0,0,0)" stroke="rgb(0,0,0)" stroke-width="1" opacity="0.34901960784313724" d="M 263.5 192 L 266 192.5 L 263.5 193 L 263.5 192 Z " /><path fill="rgb(0,0,0)" stroke="rgb(0,0,0)" stroke-width="1" opacity="0.34901960784313724" d="M 458.5 193 L 459.5 195 L 458.5 193 Z " /><path fill="rgb(0,0,0)" stroke="rgb(0,0,0)" stroke-width="1" opacity="0.34901960784313724" d="M 56.5 195 L 53.5 199 L 56.5 195 Z " /><path fill="rgb(0,0,0)" stroke="rgb(0,0,0)" stroke-width="1" opacity="0.34901960784313724" d="M 179.5 198 L 178.5 200 L 179.5 198 Z " /><path fill="rgb(0,0,0)" stroke="rgb(0,0,0)" stroke-width="1" opacity="0.34901960784313724" d="M 462.5 198 L 463.5 200 L 462.5 198 Z " /><path fill="rgb(0,0,0)" stroke="rgb(0,0,0)" stroke-width="1" opacity="0.34901960784313724" d="M 177.5 201 L 176.5 203 L 177.5 201 Z " /><path fill="rgb(0,0,0)" stroke="rgb(0,0,0)" stroke-width="1" opacity="0.34901960784313724" d="M 50.5 202 L 48.5 205 L 50.5 202 Z " /><path fill="rgb(0,0,0)" stroke="rgb(0,0,0)" stroke-width="1" opacity="0.34901960784313724" d="M 220.5 202 L 219.5 204 L 220.5 202 Z " /><path fill="rgb(0,0,0)" stroke="rgb(0,0,0)" stroke-width="1" opacity="0.34901960784313724" d="M 465.5 202 L 466.5 204 L 465.5 202 Z " /><path fill="rgb(0,0,0)" stroke="rgb(0,0,0)" stroke-width="1" opacity="0.34901960784313724" d="M 175.5 204 L 174.5 206 L 175.5 204 Z " /><path fill="rgb(0,0,0)" stroke="rgb(0,0,0)" stroke-width="1" opacity="0.34901960784313724" d="M 217.5 204 L 215.5 207 L 217.5 204 Z " /><path fill="rgb(0,0,0)" stroke="rgb(0,0,0)" stroke-width="1" opacity="0.34901960784313724" d="M 468.5 206 L 469.5 208 L 468.5 206 Z " /><path fill="rgb(0,0,0)" stroke="rgb(0,0,0)" stroke-width="1" opacity="0.34901960784313724" d="M 45.5 208 L 44.5 210 L 45.5 208 Z " /><path fill="rgb(0,0,0)" stroke="rgb(0,0,0)" stroke-width="1" opacity="0.34901960784313724" d="M 471.5 210 L 472.5 212 L 471.5 210 Z " /><path fill="rgb(0,0,0)" stroke="rgb(0,0,0)" stroke-width="1" opacity="0.34901960784313724" d="M 41.5 213 L 40.5 215 L 41.5 213 Z " /><path fill="rgb(0,0,0)" stroke="rgb(0,0,0)" stroke-width="1" opacity="0.34901960784313724" d="M 473.5 213 L 474.5 215 L 473.5 213 Z " /><path fill="rgb(0,0,0)" stroke="rgb(0,0,0)" stroke-width="1" opacity="0.34901960784313724" d="M 206.5 215 L 204.5 218 L 206.5 215 Z " /><path fill="rgb(0,0,0)" stroke="rgb(0,0,0)" stroke-width="1" opacity="0.34901960784313724" d="M 475.5 216 L 476.5 218 L 475.5 216 Z " /><path fill="rgb(0,0,0)" stroke="rgb(0,0,0)" stroke-width="1" opacity="0.34901960784313724" d="M 38.5 217 L 37.5 219 L 38.5 217 Z " /><path fill="rgb(0,0,0)" stroke="rgb(0,0,0)" stroke-width="1" opacity="0.34901960784313724" d="M 203.5 219 L 202.5 221 L 203.5 219 Z " /><path fill="rgb(0,0,0)" stroke="rgb(0,0,0)" stroke-width="1" opacity="0.34901960784313724" d="M 477.5 219 L 478.5 221 L 477.5 219 Z " /><path fill="rgb(0,0,0)" stroke="rgb(0,0,0)" stroke-width="1" opacity="0.34901960784313724" d="M 344.5 222 L 320 247.5 L 319.5 250 L 319 247.5 L 344.5 222 Z " /><path fill="rgb(0,0,0)" stroke="rgb(0,0,0)" stroke-width="1" opacity="0.34901960784313724" d="M 33.5 224 L 32.5 226 L 33.5 224 Z " /><path fill="rgb(0,0,0)" stroke="rgb(0,0,0)" stroke-width="1" opacity="0.34901960784313724" d="M 482.5 227 L 483.5 229 L 482.5 227 Z " /><path fill="rgb(0,0,0)" stroke="rgb(0,0,0)" stroke-width="1" opacity="0.34901960784313724" d="M 350.5 238 L 351 240.5 L 350 240.5 L 350.5 238 Z " /><path fill="rgb(0,0,0)" stroke="rgb(0,0,0)" stroke-width="1" opacity="0.34901960784313724" d="M 161.5 239 L 162 241.5 L 161 241.5 L 161.5 239 Z " /><path fill="rgb(0,0,0)" stroke="rgb(0,0,0)" stroke-width="1" opacity="0.34901960784313724" d="M 21.5 242 L 20.5 244 L 21.5 242 Z " /><path fill="rgb(0,0,0)" stroke="rgb(0,0,0)" stroke-width="1" opacity="0.34901960784313724" d="M 351.5 245 L 352 249.5 L 351 249.5 L 351.5 245 Z " /><path fill="rgb(0,0,0)" stroke="rgb(0,0,0)" stroke-width="1" opacity="0.34901960784313724" d="M 160.5 246 L 161 252.5 L 160 252.5 L 160.5 246 Z " /><path fill="rgb(0,0,0)" stroke="rgb(0,0,0)" stroke-width="1" opacity="0.34901960784313724" d="M 192.5 246 L 193 248.5 L 192 248.5 L 192.5 246 Z " /><path fill="rgb(0,0,0)" stroke="rgb(0,0,0)" stroke-width="1" opacity="0.34901960784313724" d="M 160.5 259 L 161 265.5 L 160 265.5 L 160.5 259 Z " /><path fill="rgb(0,0,0)" stroke="rgb(0,0,0)" stroke-width="1" opacity="0.34901960784313724" d="M 351.5 261 L 352 264.5 L 351 264.5 L 351.5 261 Z " /><path fill="rgb(0,0,0)" stroke="rgb(0,0,0)" stroke-width="1" opacity="0.34901960784313724" d="M 192.5 263 L 193 265.5 L 192 265.5 L 192.5 263 Z " /><path fill="rgb(0,0,0)" stroke="rgb(0,0,0)" stroke-width="1" opacity="0.34901960784313724" d="M 319.5 263 L 320 265.5 L 319 265.5 L 319.5 263 Z " /><path fill="rgb(0,0,0)" stroke="rgb(0,0,0)" stroke-width="1" opacity="0.34901960784313724" d="M 491.5 268 L 490.5 270 L 491.5 268 Z " /><path fill="rgb(0,0,0)" stroke="rgb(0,0,0)" stroke-width="1" opacity="0.34901960784313724" d="M 350.5 269 L 351 271.5 L 350 271.5 L 350.5 269 Z " /><path fill="rgb(0,0,0)" stroke="rgb(0,0,0)" stroke-width="1" opacity="0.34901960784313724" d="M 161.5 270 L 162 272.5 L 161 272.5 L 161.5 270 Z " /><path fill="rgb(0,0,0)" stroke="rgb(0,0,0)" stroke-width="1" opacity="0.34901960784313724" d="M 22.5 271 L 23.5 273 L 22.5 271 Z " /><path fill="rgb(0,0,0)" stroke="rgb(0,0,0)" stroke-width="1" opacity="0.34901960784313724" d="M 30.5 283 L 31.5 285 L 30.5 283 Z " /><path fill="rgb(0,0,0)" stroke="rgb(0,0,0)" stroke-width="1" opacity="0.34901960784313724" d="M 32.5 286 L 33.5 288 L 32.5 286 Z " /><path fill="rgb(0,0,0)" stroke="rgb(0,0,0)" stroke-width="1" opacity="0.34901960784313724" d="M 479.5 286 L 478.5 288 L 479.5 286 Z " /><path fill="rgb(0,0,0)" stroke="rgb(0,0,0)" stroke-width="1" opacity="0.34901960784313724" d="M 35.5 290 L 36.5 292 L 35.5 290 Z " /><path fill="rgb(0,0,0)" stroke="rgb(0,0,0)" stroke-width="1" opacity="0.34901960784313724" d="M 309.5 291 L 308.5 293 L 309.5 291 Z " /><path fill="rgb(0,0,0)" stroke="rgb(0,0,0)" stroke-width="1" opacity="0.34901960784313724" d="M 474.5 293 L 473.5 295 L 474.5 293 Z " /><path fill="rgb(0,0,0)" stroke="rgb(0,0,0)" stroke-width="1" opacity="0.34901960784313724" d="M 38.5 294 L 39.5 296 L 38.5 294 Z " /><path fill="rgb(0,0,0)" stroke="rgb(0,0,0)" stroke-width="1" opacity="0.34901960784313724" d="M 306.5 295 L 305.5 297 L 306.5 295 Z " /><path fill="rgb(0,0,0)" stroke="rgb(0,0,0)" stroke-width="1" opacity="0.34901960784313724" d="M 471.5 297 L 469.5 300 L 471.5 297 Z " /><path fill="rgb(0,0,0)" stroke="rgb(0,0,0)" stroke-width="1" opacity="0.34901960784313724" d="M 41.5 298 L 42.5 300 L 41.5 298 Z " /><path fill="rgb(0,0,0)" stroke="rgb(0,0,0)" stroke-width="1" opacity="0.34901960784313724" d="M 44.5 302 L 46.5 305 L 44.5 302 Z " /><path fill="rgb(0,0,0)" stroke="rgb(0,0,0)" stroke-width="1" opacity="0.34901960784313724" d="M 467.5 302 L 466.5 304 L 467.5 302 Z " /><path fill="rgb(0,0,0)" stroke="rgb(0,0,0)" stroke-width="1" opacity="0.34901960784313724" d="M 296.5 305 L 295.5 307 L 296.5 305 Z " /><path fill="rgb(0,0,0)" stroke="rgb(0,0,0)" stroke-width="1" opacity="0.34901960784313724" d="M 336.5 306 L 335.5 308 L 336.5 306 Z " /><path fill="rgb(0,0,0)" stroke="rgb(0,0,0)" stroke-width="1" opacity="0.34901960784313724" d="M 463.5 307 L 461.5 310 L 463.5 307 Z " /><path fill="rgb(0,0,0)" stroke="rgb(0,0,0)" stroke-width="1" opacity="0.34901960784313724" d="M 49.5 308 L 51.5 311 L 49.5 308 Z " /><path fill="rgb(0,0,0)" stroke="rgb(0,0,0)" stroke-width="1" opacity="0.34901960784313724" d="M 292.5 308 L 291.5 310 L 292.5 308 Z " /><path fill="rgb(0,0,0)" stroke="rgb(0,0,0)" stroke-width="1" opacity="0.34901960784313724" d="M 334.5 309 L 333.5 311 L 334.5 309 Z " /><path fill="rgb(0,0,0)" stroke="rgb(0,0,0)" stroke-width="1" opacity="0.34901960784313724" d="M 331.5 313 L 330.5 315 L 331.5 313 Z " /><path fill="rgb(0,0,0)" stroke="rgb(0,0,0)" stroke-width="1" opacity="0.34901960784313724" d="M 458.5 313 L 454.5 318 L 458.5 313 Z " /><path fill="rgb(0,0,0)" stroke="rgb(0,0,0)" stroke-width="1" opacity="0.34901960784313724" d="M 54.5 314 L 57.5 318 L 54.5 314 Z " /><path fill="rgb(0,0,0)" stroke="rgb(0,0,0)" stroke-width="1" opacity="0.34901960784313724" d="M 247.5 319 L 250 319.5 L 247.5 320 L 222.5 345 L 247.5 319 Z " /><path fill="rgb(0,0,0)" stroke="rgb(0,0,0)" stroke-width="1" opacity="0.34901960784313724" d="M 263.5 319 L 266 319.5 L 263.5 320 L 263.5 319 Z " /><path fill="rgb(0,0,0)" stroke="rgb(0,0,0)" stroke-width="1" opacity="0.34901960784313724" d="M 326.5 319 L 318.5 328 L 326.5 319 Z " /><path fill="rgb(0,0,0)" stroke="rgb(0,0,0)" stroke-width="1" opacity="0.34901960784313724" d="M 450.5 322 L 429.5 344 L 450.5 322 Z " /><path fill="rgb(0,0,0)" stroke="rgb(0,0,0)" stroke-width="1" opacity="0.34901960784313724" d="M 63.5 324 L 79.5 341 L 63.5 324 Z " /><path fill="rgb(0,0,0)" stroke="rgb(0,0,0)" stroke-width="1" opacity="0.34901960784313724" d="M 314.5 330 L 313.5 332 L 314.5 330 Z " /><path fill="rgb(0,0,0)" stroke="rgb(0,0,0)" stroke-width="1" opacity="0.34901960784313724" d="M 310.5 333 L 309.5 335 L 310.5 333 Z " /><path fill="rgb(0,0,0)" stroke="rgb(0,0,0)" stroke-width="1" opacity="0.34901960784313724" d="M 307.5 335 L 306.5 337 L 307.5 335 Z " /><path fill="rgb(0,0,0)" stroke="rgb(0,0,0)" stroke-width="1" opacity="0.34901960784313724" d="M 86.5 346 L 89.5 350 L 86.5 346 Z " /><path fill="rgb(0,0,0)" stroke="rgb(0,0,0)" stroke-width="1" opacity="0.34901960784313724" d="M 423.5 348 L 420.5 352 L 423.5 348 Z " /><path fill="rgb(0,0,0)" stroke="rgb(0,0,0)" stroke-width="1" opacity="0.34901960784313724" d="M 238.5 350 L 241 350.5 L 238.5 351 L 238.5 350 Z " /><path fill="rgb(0,0,0)" stroke="rgb(0,0,0)" stroke-width="1" opacity="0.34901960784313724" d="M 269.5 350 L 272 350.5 L 269.5 351 L 269.5 350 Z " /><path fill="rgb(0,0,0)" stroke="rgb(0,0,0)" stroke-width="1" opacity="0.34901960784313724" d="M 245.5 351 L 250 351.5 L 245.5 352 L 245.5 351 Z " /><path fill="rgb(0,0,0)" stroke="rgb(0,0,0)" stroke-width="1" opacity="0.34901960784313724" d="M 260.5 351 L 265 351.5 L 260.5 352 L 260.5 351 Z " /><path fill="rgb(0,0,0)" stroke="rgb(0,0,0)" stroke-width="1" opacity="0.34901960784313724" d="M 93.5 352 L 96.5 356 L 93.5 352 Z " /><path fill="rgb(0,0,0)" stroke="rgb(0,0,0)" stroke-width="1" opacity="0.34901960784313724" d="M 416.5 354 L 414.5 357 L 416.5 354 Z " /><path fill="rgb(0,0,0)" stroke="rgb(0,0,0)" stroke-width="1" opacity="0.34901960784313724" d="M 99.5 357 L 101.5 360 L 99.5 357 Z " /><path fill="rgb(0,0,0)" stroke="rgb(0,0,0)" stroke-width="1" opacity="0.34901960784313724" d="M 411.5 358 L 409.5 361 L 411.5 358 Z " /><path fill="rgb(0,0,0)" stroke="rgb(0,0,0)" stroke-width="1" opacity="0.34901960784313724" d="M 104.5 361 L 105.5 363 L 104.5 361 Z " /><path fill="rgb(0,0,0)" stroke="rgb(0,0,0)" stroke-width="1" opacity="0.34901960784313724" d="M 406.5 362 L 405.5 364 L 406.5 362 Z " /><path fill="rgb(0,0,0)" stroke="rgb(0,0,0)" stroke-width="1" opacity="0.34901960784313724" d="M 108.5 364 L 111 365.5 L 109.5 366 L 108.5 364 Z " /><path fill="rgb(0,0,0)" stroke="rgb(0,0,0)" stroke-width="1" opacity="0.34901960784313724" d="M 402.5 365 L 401.5 367 L 402.5 365 Z " /><path fill="rgb(0,0,0)" stroke="rgb(0,0,0)" stroke-width="1" opacity="0.34901960784313724" d="M 395.5 370 L 394.5 372 L 395.5 370 Z " /><path fill="rgb(0,0,0)" stroke="rgb(0,0,0)" stroke-width="1" opacity="0.34901960784313724" d="M 392.5 372 L 391.5 374 L 392.5 372 Z " /><path fill="rgb(0,0,0)" stroke="rgb(0,0,0)" stroke-width="1" opacity="0.34901960784313724" d="M 389.5 374 L 388.5 376 L 389.5 374 Z " /><path fill="rgb(0,0,0)" stroke="rgb(0,0,0)" stroke-width="1" opacity="0.34901960784313724" d="M 167.5 399 L 91.5 476 L 167.5 399 Z " /><path fill="rgb(0,0,0)" stroke="rgb(0,0,0)" stroke-width="1" opacity="0.34901960784313724" d="M 295.5 412 L 298 412.5 L 295.5 413 L 295.5 412 Z " /><path fill="rgb(0,0,0)" stroke="rgb(0,0,0)" stroke-width="1" opacity="0.34901960784313724" d="M 289.5 413 L 292 413.5 L 289.5 414 L 289.5 413 Z " /><path fill="rgb(0,0,0)" stroke="rgb(0,0,0)" stroke-width="1" opacity="0.34901960784313724" d="M 227.5 414 L 230 414.5 L 227.5 415 L 227.5 414 Z " /><path fill="rgb(0,0,0)" stroke="rgb(0,0,0)" stroke-width="1" opacity="0.34901960784313724" d="M 281.5 414 L 285 414.5 L 281.5 415 L 281.5 414 Z " /><path fill="rgb(0,0,0)" stroke="rgb(0,0,0)" stroke-width="1" opacity="0.34901960784313724" d="M 236.5 415 L 242 415.5 L 236.5 416 L 236.5 415 Z " /><path fill="rgb(0,0,0)" stroke="rgb(0,0,0)" stroke-width="1" opacity="0.34901960784313724" d="M 269.5 415 L 275 415.5 L 269.5 416 L 269.5 415 Z " /><path fill="rgb(0,0,0)" stroke="rgb(0,0,0)" stroke-width="1" opacity="0.34901960784313724" d="M 66.5 455 L 65.5 457 L 66.5 455 Z " /><path fill="rgb(0,0,0)" stroke="rgb(0,0,0)" stroke-width="1" opacity="0.34901960784313724" d="M 65.5 471 L 66.5 473 L 65.5 471 Z " /><path fill="rgb(0,0,0)" stroke="rgb(0,0,0)" stroke-width="1" opacity="0.34901960784313724" d="M 67.5 474 L 68.5 476 L 67.5 474 Z " /></svg>